<svg width="253" height="99" viewBox="0 0 253 99" fill="none" xmlns="http://www.w3.org/2000/svg">
<path d="M18.8084 19.2518C19.0611 19.8962 19.177 20.5661 19.1561 21.2592C19.1353 21.9523 18.9776 22.613 18.6855 23.2412C20.7208 23.3385 22.6309 23.8763 24.4159 24.8592C23.433 23.0743 22.8952 21.1642 22.7978 19.1289C22.1696 19.421 21.509 19.5786 20.8159 19.5995C20.1228 19.6203 19.4552 19.5044 18.8084 19.2518Z" fill="black" stroke="black" stroke-width="0.96087"/>
<path d="M0.962249 55.8698V56.0901L0.999339 56.5282L1.05034 56.9709C1.05034 57.0428 1.05034 57.117 1.07815 57.1888L1.10829 57.409C1.18015 57.9955 1.2891 58.5889 1.40732 59.1754L1.53482 59.6344C1.56959 59.7804 1.60436 59.9265 1.64145 60.0748L1.69708 60.295L1.75272 60.5129L1.87326 60.9557C1.96135 61.2478 2.0448 61.5398 2.14679 61.8319L2.21865 62.0521C2.24184 62.124 2.26502 62.1982 2.29283 62.27L2.4296 62.7081C2.64982 63.2853 2.87931 63.8625 3.14589 64.4235L3.24093 64.6345L3.34525 64.8454L3.55156 65.265C3.6976 65.5455 3.84827 65.8259 4.01286 66.0995C4.33739 66.6512 4.69438 67.182 5.0815 67.6897C5.17886 67.8172 5.28317 67.9423 5.38285 68.0745L5.53584 68.2576L5.69347 68.443L5.85574 68.6239L5.93455 68.7166L6.02032 68.8047L6.18491 68.9808L6.35877 69.1547C6.58594 69.3842 6.82702 69.6067 7.07737 69.8223C7.32773 70.0379 7.58504 70.2465 7.84466 70.4366C7.97911 70.5386 8.1182 70.629 8.25728 70.7217C8.32682 70.7681 8.39869 70.8098 8.46823 70.8562L8.68381 70.9883L8.90171 71.1111L9.01298 71.1714L9.12657 71.2294L9.35142 71.3453L9.58323 71.4519C10.2114 71.7393 10.8675 71.9433 11.5467 72.0639H12.0705C12.2421 72.0639 12.4159 72.0986 12.5921 72.0986H13.6608C14.0247 72.0476 14.3794 71.9642 14.7248 71.8437C14.8963 71.7857 15.0655 71.7185 15.2324 71.6443C15.3182 71.6095 15.3947 71.5678 15.4758 71.5261L15.7123 71.4032L16.06 71.1946L16.1712 71.1181L16.3938 70.9605L16.6047 70.7866L16.7137 70.7032L16.8134 70.6104L17.0127 70.4227L17.1982 70.2233L17.2886 70.1236L17.3743 70.0193L17.5436 69.8084L17.7012 69.5882L17.7777 69.4769L17.8495 69.361C17.8959 69.2845 17.9469 69.208 17.9886 69.1315C18.0744 68.9739 18.1625 68.8186 18.2343 68.6586C18.2738 68.5775 18.3108 68.501 18.3456 68.4199L18.4453 68.1788C18.4801 68.0977 18.5079 68.0165 18.538 67.9354C18.5682 67.8543 18.6006 67.7708 18.6238 67.6897C18.6725 67.5251 18.7258 67.3582 18.7698 67.1936C18.8602 66.8621 18.9228 66.5283 18.9808 66.1992C19.0828 65.5408 19.1384 64.8802 19.1454 64.2149C19.1523 63.5658 19.1268 62.9168 19.0642 62.27C19.0063 61.6279 18.9182 60.9951 18.8116 60.3715L18.7304 59.9056L18.6377 59.4443L18.5913 59.2148L18.5427 58.983L18.4453 58.5148L18.334 58.0627L18.2807 57.8356L18.2204 57.6084L18.0999 57.1587L17.9724 56.7136L17.9075 56.4888L17.838 56.2662L17.7035 55.8258L17.5621 55.3877L17.4926 55.1675L17.4207 54.9519L17.27 54.5184L17.0405 53.8717L16.7971 53.2388C16.5792 52.6779 16.3521 52.1192 16.1179 51.5698C15.8815 51.0205 15.6358 50.4827 15.39 49.9518L14.6575 48.3918L13.2157 45.3481C12.766 44.4 12.3278 43.4682 11.9013 42.5572L11.2824 43.9874L11.1479 44.2865L10.7631 45.0908L10.9022 45.3783L11.1734 45.9439L11.3195 46.2475L12.7961 49.2564L13.5425 50.7933C13.7882 51.3079 14.0293 51.8225 14.2611 52.3302C14.4906 52.8378 14.7178 53.3872 14.9334 53.9227L15.0956 54.326L15.2533 54.734L15.4063 55.1397L15.5569 55.5523L15.6288 55.7586L15.6984 55.9672L15.8398 56.3821L15.9742 56.8017L16.0437 57.008L16.1087 57.219L16.2362 57.6432L16.3544 58.0651L16.417 58.276L16.4749 58.4916L16.5862 58.9181L16.6905 59.3493L16.7392 59.5648L16.7855 59.7804L16.8783 60.2139L16.9617 60.6474C17.0776 61.2292 17.1657 61.8018 17.2283 62.3975C17.2932 62.9794 17.328 63.5635 17.3326 64.15C17.3372 64.7272 17.3002 65.2997 17.2237 65.8723C17.1819 66.1528 17.1356 66.4333 17.066 66.7022C17.066 66.7856 17.0243 66.8714 17.0011 66.9548L16.9594 67.1055C16.9594 67.1704 16.9154 67.2353 16.8945 67.3002C16.8713 67.3675 16.8504 67.4324 16.8249 67.4926L16.7508 67.685C16.7276 67.7476 16.6975 67.8079 16.6696 67.8705C16.6163 67.998 16.5514 68.1116 16.4935 68.2321C16.4633 68.2901 16.4286 68.3457 16.3938 68.4036L16.3428 68.4894L16.2895 68.5705L16.1782 68.7351L16.06 68.8881L15.9974 68.9646L15.9325 69.0388L15.8027 69.1848L15.6636 69.3239L15.594 69.3911L15.3715 69.6276L15.2139 69.7412L15.1374 69.7991L15.0516 69.8524L14.887 69.9614L14.6668 70.0773L14.537 70.1445L14.3608 70.2256L14.18 70.2998C13.9366 70.3902 13.6863 70.4551 13.4313 70.4945H11.804L11.6 70.4598L11.2963 70.3949L10.9926 70.3184L10.7933 70.2581L10.6936 70.2256C10.5615 70.1816 10.4317 70.1329 10.3088 70.0796L10.2137 70.0379L10.0167 69.9544L9.82431 69.8617L9.72927 69.8153L9.63191 69.7643L9.44414 69.6647L9.39778 69.6392L9.26101 69.558L9.12193 69.4769L9.07557 69.4468L8.94112 69.361L8.89476 69.3309L8.76031 69.2428L8.71858 69.2126C8.59804 69.1315 8.48445 69.0457 8.36855 68.9577L8.28278 68.8928L8.02547 68.6934L7.6963 68.4083L7.4529 68.1881L7.37177 68.1116L6.98929 67.7291L6.76675 67.4857L6.62071 67.3211L6.47467 67.1542L6.40513 67.0708C6.33558 66.9873 6.2614 66.9062 6.1965 66.8181L6.06669 66.6558L5.93224 66.482L5.80011 66.3058L5.67493 66.1296C5.50571 65.8909 5.34344 65.6475 5.19045 65.3994C5.03282 65.1537 4.8891 64.8987 4.74769 64.6298L4.54138 64.245L4.49038 64.15L4.43939 64.0526L4.34434 63.8533C4.08008 63.3271 3.84364 62.7893 3.6211 62.2515C3.10648 60.9742 2.71009 59.6599 2.43424 58.3108C2.40642 58.1694 2.3786 58.0303 2.34847 57.8935C2.32065 57.7544 2.29515 57.6154 2.27197 57.474L2.2372 57.263C2.14911 56.702 2.07725 56.1387 2.02162 55.5778C1.98685 55.1999 1.95903 54.8151 1.93817 54.4257H1.91962C1.91962 54.2101 1.91035 53.9945 1.8918 53.7789C1.8918 53.619 1.8918 53.4591 1.8918 53.2991C1.8918 52.5851 1.91035 51.8781 1.94512 51.1781C1.94512 51.0367 1.95439 50.8976 1.97294 50.7585V50.6866C1.97294 50.5406 1.98453 50.3946 2.00771 50.2509C2.04248 49.8336 2.08652 49.421 2.1352 49.0107C2.26502 47.956 2.43887 46.9314 2.63823 45.9346C2.83758 44.9402 3.07171 43.9643 3.3267 43.0231C3.70919 41.5535 4.1589 40.158 4.61324 38.8436L4.83346 38.2224L4.99805 37.7611C5.20436 37.1885 5.41298 36.6345 5.61929 36.0967L5.37821 35.5195C5.09309 36.1802 4.80796 36.871 4.52052 37.5872C3.87609 39.2006 3.2363 40.9531 2.66836 42.8423C2.38324 43.7858 2.11434 44.764 1.88021 45.7747C1.64609 46.7853 1.43746 47.8262 1.26824 48.9017C1.19174 49.4395 1.11524 49.982 1.05729 50.536C1.02716 50.8118 1.00398 51.09 0.980794 51.3658C0.980794 51.5049 0.962249 51.6463 0.950659 51.7854C0.939068 51.9245 0.932114 52.0659 0.922842 52.2073L0.904297 52.6315C0.904297 52.7729 0.904297 52.9143 0.904297 53.058C0.904297 53.3408 0.904297 53.6306 0.904297 53.9134C0.904297 54.4906 0.904297 55.0678 0.962249 55.6519V55.8698Z" fill="black" stroke="black" stroke-width="0.96087"/>
<path d="M9.47326 26.9435C9.08846 27.6691 8.65729 28.5569 8.14268 29.6001L7.86914 30.1564L7.97345 30.4531L8.31885 29.6835C8.79638 28.6265 9.21131 27.7224 9.55439 26.9922L9.99251 26.0024L10.3217 25.2838C10.4955 24.899 10.5952 24.7112 10.5999 24.6997C10.6022 24.6881 10.4886 24.906 10.2985 25.2745L9.47326 26.9435Z" fill="black" stroke="black" stroke-width="0.96087"/>
<path d="M11.185 41.5345L11.2939 41.2679L11.7437 40.1738C11.892 39.789 12.0473 39.4042 12.1934 39.0194L12.446 38.368L12.5782 38.0365C12.6199 37.9253 12.657 37.814 12.701 37.7027L13.2041 36.3374C13.8601 34.4853 14.5138 32.5172 15.1257 30.4425C15.2718 29.9233 15.4132 29.3971 15.5592 28.8663L15.6682 28.4815C15.703 28.347 15.7331 28.2126 15.7679 28.0967L15.9672 27.2853L16.1712 26.4671L16.3543 25.6372C16.4772 25.0809 16.6093 24.5222 16.7206 23.9589L16.7925 23.5046L16.8365 23.289L16.8736 23.0734L16.9547 22.6422L17.0289 22.2088C17.0544 22.0627 17.0729 21.9167 17.0961 21.7707C17.1193 21.6246 17.1425 21.4786 17.1634 21.3279C17.2004 21.0335 17.2422 20.7368 17.2746 20.4401C17.3048 20.1457 17.3326 19.842 17.3581 19.5407C17.3581 19.3923 17.3766 19.237 17.3882 19.0886V18.9102H17.2932C17.1425 18.9102 17.0057 18.9102 16.8713 18.9102H16.2199V19.0771C16.2199 19.2231 16.2199 19.3645 16.2199 19.5059C16.2199 19.7957 16.1898 20.0831 16.1619 20.3729C16.1364 20.6603 16.1086 20.9454 16.0831 21.2329C16.0831 21.3743 16.0483 21.518 16.0321 21.6594C16.0159 21.8008 15.9973 21.9445 15.9788 22.0859L15.9209 22.5124L15.8559 22.9343L15.8258 23.1476L15.7215 23.7804C15.6241 24.3414 15.5129 24.8954 15.4109 25.4494L15.2532 26.2723L15.0747 27.086L14.8986 27.8927C14.8684 28.0271 14.8406 28.1616 14.8105 28.2775L14.7131 28.6623C14.5879 29.1931 14.4605 29.7147 14.3306 30.2339C13.7581 32.3016 13.1739 34.265 12.5782 36.1334L12.1192 37.5057C12.0821 37.617 12.0473 37.7329 12.0079 37.8441L11.8897 38.1756L11.6579 38.8316C11.4469 39.4482 11.2244 40.0463 11.0042 40.6281L10.7353 41.3491C10.6634 41.553 10.5823 41.7339 10.5058 41.9494L10.274 42.5382L10.0491 43.1131L9.9564 43.3519V43.3982L9.8405 43.6787L9.39079 44.7659L9.17057 45.2921L8.92485 45.7974C8.63277 46.4697 8.36156 47.1118 8.08802 47.7191L7.70322 48.5907C7.63831 48.7321 7.57572 48.8712 7.51545 49.0056L7.32769 49.3904C7.07965 49.912 6.8548 50.4057 6.63922 50.8508L6.04578 52.0701L5.79311 52.587L5.56594 53.0368L5.21359 53.7461L4.92383 54.321L5.23677 53.7553L5.61926 53.0646L5.86266 52.6218L6.13155 52.1142L6.76671 50.9204C6.9962 50.4822 7.23728 49.9978 7.50386 49.4832L7.70322 49.0984C7.77276 48.9639 7.83767 48.8248 7.90721 48.6857L8.33374 47.8257C8.63046 47.2369 8.92254 46.6041 9.2378 45.9388L9.47424 45.4358L9.71069 44.9166L10.1905 43.8549L10.3134 43.579L10.4362 43.2985L10.682 42.7213L10.9323 42.1418C11.0158 41.9309 11.1039 41.7339 11.185 41.5345Z" fill="black" stroke="black" stroke-width="0.96087"/>
<path d="M2.52413 20.7835C2.6864 22.0167 2.90894 23.2291 3.13611 24.4205C3.36097 25.6097 3.65305 26.7827 3.96599 27.9324C4.04248 28.2199 4.1213 28.505 4.20475 28.7901C4.28357 29.0729 4.36934 29.3627 4.45742 29.6385L4.71937 30.4777L4.84918 30.8926L4.99522 31.3029L5.27339 32.1212C5.31743 32.2556 5.3638 32.3947 5.41479 32.5245L5.56083 32.9093C5.65588 33.1782 5.75324 33.4448 5.84828 33.709L6.01054 34.1356L6.14499 34.4972L6.19831 34.6386C6.58775 35.6632 6.98646 36.6553 7.39444 37.615C7.80243 38.5723 8.21041 39.5135 8.62303 40.4361C8.85948 40.9484 9.10288 41.4792 9.35091 42.0263L9.59199 41.4073C9.64995 41.2567 9.7079 41.1153 9.75658 40.9762L9.99998 40.3318L10.3755 39.2631C10.1507 38.7508 9.92348 38.2385 9.69631 37.7262L9.5804 37.4574L9.27442 36.7341L9.1191 36.3679L9.00552 36.092L8.89657 35.8301L8.77835 35.538C8.5419 34.9585 8.30545 34.3697 8.07133 33.767L7.76998 32.9974L7.64712 32.6636L7.48717 32.2208L7.34808 31.8384L7.22522 31.4999L7.20668 31.442L6.91692 30.6469L6.78015 30.2621L6.64802 29.8773L6.38608 29.0659C6.29799 28.7971 6.21685 28.5282 6.13804 28.2523C6.05691 27.9741 5.97577 27.7006 5.89928 27.4248C5.58865 26.319 5.30353 25.1878 5.05317 24.0381C4.80282 22.8906 4.58028 21.7339 4.41106 20.5494C4.23489 19.3695 4.11898 18.1849 4.06567 16.9935C4.04248 16.3977 4.03785 15.8066 4.06567 15.2132C4.08653 14.6174 4.13984 14.024 4.22793 13.4352C4.31138 12.865 4.43888 12.3063 4.61042 11.7593C4.63128 11.6897 4.65678 11.6248 4.67996 11.5599L4.7495 11.3629L4.826 11.1705L4.86541 11.0754L4.90713 10.9827L4.99522 10.7973C5.02536 10.737 5.06013 10.679 5.09258 10.6164C5.15285 10.4936 5.22703 10.3823 5.29425 10.2687V10.2479L5.39625 10.1018L5.44957 10.0207C5.44957 9.99521 5.48666 9.97203 5.50984 9.94421L5.6327 9.79122L5.76483 9.64518L5.82973 9.571L5.89928 9.50609L6.03604 9.37165L6.18672 9.24879L6.2609 9.18852L6.33739 9.13289C6.54602 8.98221 6.76624 8.85472 7.00269 8.7504C7.12091 8.70404 7.23913 8.64609 7.36663 8.60668L7.55439 8.54641L7.74679 8.49542L7.84415 8.46992H7.94383L8.14319 8.43051H8.34718L8.55117 8.40269H9.77744C9.91189 8.40269 10.0417 8.4421 10.1622 8.46528L10.357 8.51164L10.4566 8.53482L10.554 8.56032L10.7487 8.61827L10.9411 8.68782H10.9875L11.0338 8.70636L11.1289 8.74577C11.1915 8.77359 11.2564 8.79445 11.319 8.8269L11.5299 8.89876L11.7107 8.99612L11.8035 9.0448L11.8915 9.09811L12.0677 9.20706L12.2416 9.32297L12.2833 9.34847L12.325 9.38092L12.4108 9.44119C12.5244 9.52232 12.6333 9.61041 12.7446 9.69849L12.9045 9.83758L12.9857 9.90712L13.0622 9.97898L13.2175 10.125L13.3658 10.2757L13.5119 10.4287L13.6556 10.5863C13.7483 10.6953 13.8434 10.8019 13.9268 10.9178C14.0126 11.0314 14.1053 11.145 14.1888 11.2586C14.3557 11.4927 14.5156 11.7314 14.6617 11.9772C14.7382 12.1 14.8054 12.2275 14.8772 12.362L14.9769 12.5544L15.0279 12.6517L15.0743 12.7468C15.1995 13.0041 15.3107 13.2683 15.4197 13.5164C15.5263 13.7621 15.6121 14.0541 15.6932 14.323L15.7488 14.527C15.7488 14.5618 15.7697 14.5943 15.7767 14.629L15.7998 14.7333L15.8949 15.1575C15.9181 15.2595 15.9389 15.3685 15.9575 15.4728H16.085L16.6135 15.5261H17.2649L17.2324 15.3221C17.2092 15.1645 17.1884 15.0115 17.1559 14.8539L17.0632 14.3879L17.0423 14.272L17.0145 14.1538L16.9566 13.9197C16.8731 13.6068 16.7758 13.2961 16.6691 12.9878C16.5602 12.6818 16.4373 12.3805 16.2843 12.0884L16.2333 11.9772L16.18 11.8659L16.0734 11.648C15.9969 11.5043 15.9227 11.3582 15.8416 11.2168C15.6839 10.9317 15.5078 10.6559 15.3223 10.3823C15.2273 10.2479 15.1346 10.1134 15.0349 9.99752C14.9352 9.88394 14.8309 9.7379 14.7266 9.61504L14.562 9.42496C14.5087 9.36469 14.4553 9.29979 14.3974 9.24183L14.2235 9.06103L14.0474 8.88485L13.9593 8.79445L13.8666 8.711L13.6788 8.54178C13.5467 8.43515 13.4215 8.32388 13.294 8.21957L13.1943 8.14307L13.1433 8.10366L13.09 8.06426L12.879 7.91822L12.682 7.81622L12.5592 7.74668L12.4479 7.68178L12.2207 7.55428L11.9912 7.43838C11.9147 7.40129 11.8336 7.36652 11.7525 7.32711L11.6342 7.2738L11.5299 7.22743L11.2842 7.13471L11.0338 7.05358L10.9064 7.01649L10.7603 6.97708L10.503 6.91218C10.3616 6.88436 10.2179 6.85423 10.0765 6.83104H9.71949L9.45523 6.8125H8.42368L8.16173 6.83568H7.90211L7.64016 6.87741L7.51035 6.90059L7.37822 6.93072L7.11627 6.99331L6.85897 7.06981C6.68743 7.1208 6.51821 7.19266 6.34899 7.25757C6.01982 7.39202 5.70687 7.55428 5.41016 7.74668L5.38002 7.76986L5.26412 7.84636L5.15749 7.92981L4.9419 8.10366L4.73791 8.28911L4.63823 8.37951L4.54551 8.48151L4.35774 8.68086L4.18389 8.88717C4.15839 8.92194 4.12594 8.95671 4.10044 8.99148L4.0193 9.09811C3.96599 9.17229 3.91267 9.24415 3.86167 9.31833C3.76663 9.46901 3.66464 9.61736 3.58582 9.77267C3.54178 9.84917 3.49773 9.92566 3.45833 10.0022L3.34242 10.2363L3.28447 10.3568L3.23579 10.475L3.13147 10.7138L3.03875 10.9549C3.00862 11.036 2.97848 11.1172 2.95066 11.1983C2.7374 11.8334 2.57513 12.4848 2.46618 13.1455C2.35955 13.7899 2.29001 14.4389 2.25524 15.0903C2.22046 15.7371 2.21351 16.3792 2.22742 17.012C2.25987 18.2753 2.35955 19.5317 2.52413 20.7835Z" fill="black" stroke="black" stroke-width="0.96087"/>
<path d="M7.01665 55.3199C6.42322 55.6839 6.01987 56.1962 5.8066 56.8591C5.69765 57.1628 5.62347 57.4758 5.58407 57.7956C5.37312 59.365 5.81819 61.3817 6.92161 63.2964C8.80853 66.5672 11.9171 68.3197 13.8712 67.1977C15.0233 66.5394 15.4916 65.0442 15.3224 63.2617C15.283 62.8653 15.2181 62.4735 15.123 62.0841C14.8773 61.0757 14.4925 60.123 13.9709 59.2259C12.0747 55.9481 8.95921 54.198 7.01665 55.3199ZM13.7901 59.3209C15.3803 62.0771 15.378 64.467 13.7159 65.4244C11.8707 66.4907 8.90821 64.8263 7.11401 61.7155C5.54466 59.0034 5.54234 56.5624 7.18587 55.612C9.03107 54.548 11.9936 56.2124 13.7901 59.3209Z" fill="black" stroke="black" stroke-width="0.96087"/>
<path d="M71.6633 12.5145C71.6633 12.4728 71.6633 12.4265 71.6633 12.3847V11.993C71.5196 11.3161 71.2924 10.6694 70.9818 10.0527L70.8752 9.82094L70.7593 9.59377L70.7013 9.4825L70.6411 9.37124L70.5182 9.15334C70.4765 9.07916 70.4301 9.00962 70.3861 8.93776C70.3443 8.86358 70.298 8.79404 70.2516 8.72682C70.1612 8.58773 70.0685 8.44865 69.9688 8.3142C69.7764 8.0453 69.584 7.788 69.3522 7.54692C69.1227 7.30352 68.9141 7.05781 68.6846 6.82832L68.5107 6.65446L68.3346 6.48988L68.2465 6.40411L68.1584 6.32298L67.9776 6.16303L67.7921 6.0054L67.609 5.85009C67.4815 5.75042 67.3586 5.64842 67.2242 5.55106C66.7142 5.16163 66.1857 4.80696 65.6317 4.48243C65.3604 4.32017 65.08 4.16718 64.7995 4.02114L64.3799 3.81483L64.1829 3.69197L63.9719 3.59461C63.4109 3.33035 62.8198 3.09855 62.2588 2.88065L61.823 2.72302L61.6051 2.64884L61.3849 2.57698C61.0975 2.47731 60.8008 2.39617 60.5087 2.30345L60.0682 2.18523L59.848 2.12728L59.6278 2.07396L59.1874 1.98124L58.7446 1.88388C58.1558 1.76566 57.5647 1.66135 56.9759 1.58485L56.758 1.55471L56.5378 1.5269L56.0974 1.47822L55.6592 1.43881H55.2211C54.637 1.39709 54.0667 1.3855 53.4825 1.38086C53.1951 1.38086 52.91 1.38086 52.6272 1.38086H52.1983L51.7764 1.3994L51.3545 1.42722L50.935 1.45736C50.6591 1.48054 50.3786 1.50372 50.1051 1.53385C49.5557 1.58949 49.0086 1.66598 48.4708 1.74711C47.3999 1.9117 46.3544 2.12959 45.3414 2.35677C44.3307 2.58394 43.3363 2.83661 42.3951 3.13332C40.5082 3.70356 38.7557 4.34335 37.14 4.98545C36.4237 5.26826 35.7329 5.54643 35.0723 5.82459L35.6495 6.04249C36.1873 5.83618 36.7413 5.62756 37.3139 5.42125L37.7752 5.25435L38.3964 5.055C39.7108 4.60297 41.0877 4.16486 42.5759 3.76847C43.5171 3.51812 44.4976 3.28399 45.4874 3.08C46.4796 2.87601 47.5181 2.6952 48.5636 2.57698C48.9739 2.5283 49.3865 2.48426 49.8037 2.44949L50.2395 2.41472H50.3114L50.731 2.36604C51.431 2.32431 52.1381 2.30577 52.852 2.3104H53.3342L53.9786 2.33822C54.3565 2.35908 54.739 2.3869 55.133 2.42167C55.6917 2.47731 56.2527 2.54917 56.816 2.63725L57.0269 2.67202L57.4465 2.74852L57.8637 2.83429C59.2129 3.11014 60.5272 3.50653 61.8045 4.02114C62.3469 4.24367 62.8847 4.47548 63.4063 4.74438L63.608 4.83942L63.703 4.89041L63.7981 4.93909L64.1829 5.14772C64.4378 5.28912 64.6905 5.43284 64.9525 5.59047C65.2144 5.7481 65.4439 5.90573 65.6827 6.07495L65.8588 6.20012L66.035 6.33225L66.2089 6.4667L66.3711 6.59651C66.4546 6.66605 66.5404 6.73559 66.6238 6.80514L66.7096 6.87236L67.0387 7.16444L67.201 7.31511L67.2821 7.38929L67.5881 7.69528L67.6669 7.77177L67.7434 7.8529L67.9613 8.0963L68.2465 8.42547L68.4458 8.68277L68.5107 8.76854C68.5988 8.88444 68.6846 8.99803 68.7657 9.11857L68.7959 9.16029L68.8839 9.29474L68.9141 9.3411L68.9998 9.47555L69.03 9.52191L69.1111 9.661L69.1922 9.79776L69.2178 9.84412L69.3174 10.0319L69.3684 10.1292L69.4148 10.2243L69.5075 10.4167L69.591 10.6137L69.6327 10.7088C69.6883 10.8409 69.737 10.9684 69.7787 11.0936L69.8112 11.1932C69.8297 11.2581 69.8529 11.3277 69.8715 11.3926C69.8923 11.4598 69.9248 11.5943 69.9479 11.6963C69.9711 11.8006 69.9943 11.9002 70.0152 11.9999C70.0337 12.0996 70.0384 12.1344 70.0499 12.2039V12.5655C70.0499 12.6003 70.0499 12.6351 70.0499 12.6698C70.0499 12.7046 70.0499 12.7626 70.0499 12.8066C70.0499 12.853 70.0499 12.8692 70.0499 12.8993C70.0499 12.9318 70.0499 12.9318 70.0499 12.9457C70.0499 12.9619 70.0499 12.9735 70.0499 12.9851C70.0499 12.9967 70.0499 13.05 70.0499 13.0801C70.0499 13.1103 70.0499 13.1311 70.0499 13.1543C70.0499 13.1775 70.0499 13.2424 70.0499 13.2841V13.8799C70.0082 14.1372 69.9433 14.3852 69.8529 14.6286C69.8297 14.6912 69.8065 14.7515 69.7787 14.8094L69.6999 14.9879C69.6791 15.0343 69.6559 15.076 69.6304 15.1177L69.6072 15.1595L69.5608 15.2475L69.5145 15.3379L69.4078 15.5025L69.3522 15.586L69.2966 15.6625L69.1807 15.8178L68.9929 16.0403L68.9234 16.1099L68.7843 16.2466L68.6382 16.3788L68.564 16.4437L68.4875 16.5062L68.3346 16.6245L68.17 16.7357L68.0888 16.7891L68.0031 16.8401L67.8315 16.9397C67.711 17 67.5974 17.0672 67.4699 17.1159L67.2845 17.197L67.0921 17.2712C67.0318 17.2967 66.9622 17.3153 66.902 17.3384L66.7049 17.4057L66.5543 17.4474C66.4708 17.4706 66.3897 17.4937 66.3016 17.5123C66.0327 17.5818 65.7522 17.6282 65.4717 17.6699C64.8991 17.7464 64.3266 17.7835 63.7494 17.7766C63.1629 17.7742 62.5787 17.7395 61.9969 17.6746C61.4127 17.6073 60.8425 17.5192 60.2467 17.408L59.8133 17.3245L59.3798 17.2318L59.1642 17.1854L58.5174 17.0325L58.0909 16.9212L57.8753 16.8632L57.6644 16.8006L57.2425 16.6824L56.8183 16.5549L56.6073 16.49L56.401 16.4205L55.9814 16.286L55.5665 16.1446L55.3579 16.0751L54.739 15.8526L54.3333 15.6972L54.1293 15.6207L53.9253 15.5396L53.522 15.3797C52.9865 15.1595 52.4533 14.9416 51.9294 14.7074C51.4079 14.471 50.8886 14.2345 50.3925 13.9888L48.8556 13.2424L45.8259 11.7774L45.5222 11.6314L44.9589 11.3578L44.6692 11.2211L43.8671 11.6059L43.5658 11.7403L42.103 12.3592L44.8917 13.6736L47.9377 15.1131L49.5024 15.8178C50.0309 16.0635 50.5733 16.3092 51.1204 16.5433C51.6652 16.7775 52.2215 17.0046 52.7871 17.2249L53.2113 17.3848L53.4223 17.4659L53.6379 17.5424L54.0667 17.6977L54.5025 17.8461L54.7158 17.9203L54.936 17.9898L55.3741 18.1312L55.8169 18.2657L56.0394 18.3352L56.2619 18.4001L56.707 18.5276L57.1567 18.6458L57.3839 18.7084L57.6111 18.7617L58.0654 18.873L58.5221 18.9773L58.7516 19.026L58.9834 19.0723L59.4447 19.1651L59.9106 19.2462C60.5319 19.3575 61.167 19.4409 61.8091 19.4989C62.4559 19.5591 63.1026 19.587 63.754 19.58C64.417 19.5731 65.08 19.5174 65.736 19.4154C66.0675 19.3575 66.4013 19.2949 66.7328 19.2045C66.8973 19.1604 67.0619 19.1071 67.2265 19.0584C67.3123 19.0353 67.3934 19.0005 67.4745 18.9727C67.5534 18.9449 67.6391 18.9147 67.7156 18.88L67.959 18.7803C68.0378 18.7455 68.119 18.7084 68.1955 18.669C68.3577 18.5971 68.5107 18.5067 68.6684 18.4233L68.9002 18.2842L69.0138 18.2123L69.1273 18.1359L69.3452 17.9782L69.5562 17.809L69.6605 17.7232L69.7602 17.6305L69.9595 17.4474L70.1496 17.248L70.24 17.146L70.3258 17.0394L70.4997 16.8285L70.655 16.6059L70.7338 16.4947L70.801 16.3788L70.9401 16.1469C70.9818 16.0705 71.0259 15.9893 71.063 15.9105C71.1024 15.8294 71.1487 15.7529 71.1835 15.6671C71.2577 15.5025 71.3226 15.3333 71.3828 15.1595C71.5011 14.8141 71.5868 14.4594 71.6355 14.0955V13.8196C71.6355 13.7732 71.6355 13.7269 71.6355 13.6805V13.2888C71.6355 13.2007 71.6355 13.1149 71.6355 13.0268C71.6981 12.8646 71.6796 12.6884 71.6633 12.5145Z" fill="black" stroke="black" stroke-width="0.96087"/>
<path d="M29.1509 8.59286C28.1101 9.10283 27.2292 9.55254 26.4943 9.92111L24.8276 10.7626C24.4428 10.9527 24.262 11.0546 24.2504 11.0639C24.2388 11.0709 24.4614 10.9596 24.8346 10.7857L25.5578 10.4357L26.5384 9.9837C27.2755 9.64062 28.1796 9.2141 29.2274 8.75049L29.997 8.40278L29.7003 8.30078L29.1509 8.59286Z" fill="black" stroke="black" stroke-width="0.96087"/>
<path d="M7.45427 5.82481L7.71389 5.78309H7.81125L8.04538 5.75991L8.33746 5.73209H9.52432L9.78627 5.75063H9.80481C9.92072 5.68109 10.032 5.60923 10.1548 5.54664L10.3357 5.4516L10.5211 5.36352L10.6138 5.32179L10.7089 5.28238L10.9013 5.20589L11.0983 5.13635L11.2977 5.0668C11.8447 4.89527 12.4034 4.76546 12.9736 4.682C13.5532 4.59855 14.1373 4.54756 14.7261 4.52901C15.3172 4.50583 15.9083 4.52901 16.5041 4.52901C17.6956 4.58233 18.8801 4.69823 20.06 4.8744C21.2353 5.04826 22.4013 5.2592 23.5511 5.51651C24.6985 5.77381 25.8298 6.05198 26.9355 6.3626L27.7631 6.60136C28.0366 6.6825 28.3055 6.76131 28.5767 6.85172L29.3857 7.11598L29.7682 7.24579L30.153 7.38487L30.9458 7.66072L31.0038 7.68158L31.3422 7.80444L31.7247 7.94121L32.1674 8.10347L32.5012 8.22633L32.886 8.377L33.2709 8.52536C33.8736 8.75949 34.467 8.99825 35.0535 9.24164L35.3455 9.35987L35.6075 9.46881L35.8833 9.5824L36.2496 9.73771L36.9728 10.0437L37.2417 10.1596L38.8204 10.8202L39.8844 10.4354L40.5311 10.1944L40.9623 10.0298L41.5812 9.78639L39.9887 9.06083C39.0777 8.64822 38.1365 8.23792 37.1676 7.82994C36.1986 7.42428 35.2134 7.02325 34.2074 6.62686L34.0729 6.59209L33.7136 6.45764L33.2848 6.2977L32.4873 6.00794L32.1025 5.86654L31.6992 5.72514L30.86 5.44001L30.4497 5.30093L30.0348 5.17112L29.2119 4.89758C28.9314 4.8095 28.6463 4.72837 28.3635 4.64492L27.5058 4.40615C26.3374 4.09785 25.1598 3.82432 23.9776 3.5786C22.7861 3.33753 21.5738 3.12658 20.3405 2.96895C19.0934 2.80205 17.8393 2.70237 16.5829 2.66992C15.9431 2.66992 15.3056 2.66992 14.6612 2.69542C14.0075 2.73019 13.3608 2.80205 12.7163 2.90636C12.051 3.01531 11.3997 3.17758 10.7622 3.39084C10.6811 3.41866 10.6022 3.44879 10.5211 3.47893L10.2777 3.57165L10.0413 3.67596L9.92072 3.72928L9.8025 3.78723L9.57069 3.90313L9.34119 4.02831C9.18588 4.11408 9.03753 4.21376 8.88685 4.30648C8.81499 4.35516 8.74081 4.41079 8.66895 4.46411L8.56 4.54524C8.52291 4.57074 8.49046 4.60319 8.45337 4.62869L8.24474 4.80254L8.04538 4.99031L7.9457 5.08303L7.85298 5.18271L7.66985 5.3867L7.49599 5.60228C7.46818 5.63705 7.43804 5.6695 7.41022 5.70891L7.33373 5.82481L7.31055 5.85495H7.4195L7.45427 5.82481Z" fill="black" stroke="black" stroke-width="0.96087"/>
<path d="M42.8335 10.8842L43.114 10.7613L43.3898 10.6385L44.4515 10.1563L44.9708 9.92219L45.4738 9.68343C46.1344 9.37049 46.7696 9.07841 47.3607 8.7817L48.2207 8.35518L48.6334 8.15119L49.0182 7.9472L50.4554 7.21005L51.6492 6.5749L52.1568 6.306L52.5996 6.06493L53.2904 5.68013L53.856 5.36719L53.2788 5.65695L52.5764 6.00929L52.1267 6.23646L51.6075 6.48681L50.3905 7.07792L48.9556 7.74784L48.5708 7.93561L48.1558 8.12337L47.2842 8.50817C46.6838 8.78634 46.0417 9.05523 45.3625 9.34731L44.8502 9.56984L44.324 9.78774L43.2368 10.2374L42.9563 10.3534H42.91L42.6712 10.4461L42.094 10.6732L41.5075 10.9027C41.3105 10.9792 41.1227 11.0604 40.9072 11.1345L40.1839 11.4034C39.5997 11.6213 39.004 11.8439 38.3897 12.0571L37.7337 12.2866L37.3976 12.4048L37.0591 12.5161L35.6868 12.9751C33.8277 13.5708 31.8434 14.155 29.785 14.6858L28.2133 15.0683L27.8285 15.1657L27.4437 15.2537L26.637 15.4299L25.821 15.6084L24.9795 15.8194C24.4255 15.9237 23.8738 16.0349 23.3105 16.13L22.6777 16.2343L22.4667 16.2644L22.0425 16.3293L21.616 16.3873L21.1895 16.4406L20.7513 16.4916C20.4685 16.5217 20.1788 16.5519 19.8913 16.575C19.6016 16.5982 19.3188 16.6145 19.0267 16.633H16.6506L16.5231 16.5866H16.4165L15.9854 16.5449H15.7698L15.5565 16.5148L15.3711 16.4615L15.1601 16.4221H15.0674L14.7336 16.3618L14.3094 16.2644L14.1912 16.2042H14.0868L13.8828 16.1462C13.6116 16.0651 13.3404 15.9723 13.0761 15.8727C12.8119 15.773 12.5453 15.6571 12.3065 15.5273L12.2115 15.4809L12.0956 15.4346L11.9125 15.3187C11.7896 15.2468 11.6575 15.1819 11.5277 15.1031C11.2819 14.957 11.0432 14.7971 10.8091 14.6302C10.6932 14.5467 10.5772 14.461 10.466 14.3706C10.3547 14.2778 10.2481 14.1898 10.1368 14.097L9.99077 13.9556L9.83546 13.8096L9.6871 13.6589L9.54106 13.5059L9.46688 13.4271L9.39734 13.3483L9.26057 13.186C9.17016 13.0748 9.08208 12.9658 9.00326 12.8522L8.94067 12.7665L8.90127 12.7433L8.87113 12.7016L8.75523 12.5277C8.71814 12.4721 8.68337 12.4095 8.64859 12.3515L8.59528 12.2634L8.54428 12.1707L8.45156 11.976L8.36347 11.7906C8.33333 11.7303 8.31015 11.6631 8.28234 11.6028L8.24525 11.5054L8.2267 11.4614V11.415L8.15716 11.2226C8.13398 11.1577 8.11775 11.0905 8.09921 11.0256L8.06907 10.9213L8.02966 10.8216L7.9833 10.6269C7.96476 10.4924 7.93462 10.3603 7.92303 10.2421V10.1424C7.92071 10.1076 7.92071 10.0752 7.92303 10.0427V9.55825H7.87203L7.80713 9.58143L7.71904 9.61157H7.68427L7.55214 9.66489L7.4571 9.70661C7.29715 9.78079 7.14647 9.86656 7.00275 9.96855L6.93321 10.0195L6.89612 10.0543L6.78021 10.1447L6.62954 10.2908L6.59245 10.3371L6.53913 10.3951L6.49277 10.4484L6.43945 10.5179C6.46263 10.6617 6.49277 10.8031 6.51827 10.9445C6.54609 11.0882 6.56231 11.1183 6.58549 11.2018C6.60867 11.2875 6.60867 11.2875 6.62026 11.3293L6.65735 11.4568C6.68517 11.5402 6.70835 11.626 6.73849 11.7071L6.83121 11.9528L6.85439 12.0131L6.87989 12.0757L6.93321 12.1939C6.96798 12.275 7.00275 12.3562 7.04216 12.4327L7.16038 12.6621L7.28787 12.8893L7.35278 13.0006L7.42232 13.1095C7.46869 13.1814 7.51505 13.2556 7.56141 13.3251L7.70745 13.5361L7.74454 13.5894L7.78395 13.6404L7.86044 13.74C7.96012 13.8768 8.07139 14.0043 8.18266 14.1248L8.35188 14.3126L8.43765 14.4053L8.52574 14.4934L8.70191 14.6742L8.88272 14.8458L9.06817 15.0127L9.25593 15.1726C9.38575 15.2769 9.51324 15.3836 9.64074 15.4809C9.76591 15.576 9.905 15.6756 10.0255 15.7684C10.2968 15.9538 10.5749 16.13 10.8577 16.2876C11.0015 16.3734 11.1475 16.4452 11.2889 16.5194L11.5091 16.626L11.6204 16.6794L11.7317 16.7304C12.0261 16.8671 12.3274 16.9877 12.6334 17.1152C12.9417 17.2403 13.25 17.3168 13.5606 17.4026L13.7948 17.4605L13.9153 17.486L14.0289 17.5092L14.4948 17.6019L14.9631 17.6784L15.1972 17.7132L15.4313 17.741L15.6678 17.7665L15.9019 17.7897L16.3702 17.8245H16.8361C16.9891 17.8245 17.1467 17.8245 17.2997 17.8245H18.6813L19.1333 17.7943C19.4324 17.7665 19.736 17.7434 20.0327 17.7109C20.3295 17.6761 20.6285 17.6367 20.9206 17.5973L21.3633 17.5324L21.8014 17.4629L22.2349 17.391L22.6661 17.3099L22.8817 17.2728L23.0578 17.2403L23.4844 17.1569C24.05 17.0456 24.611 16.9135 25.165 16.7906L25.9949 16.6075L26.8132 16.4035L27.6314 16.2042L28.0162 16.1022L28.401 15.9955L29.9774 15.562C32.0474 14.9663 34.0155 14.3126 35.8676 13.6404L37.2793 13.1513L37.6131 13.0284L37.9446 12.8986L38.5983 12.6436C38.9808 12.4976 39.3656 12.3446 39.7504 12.1939L40.8469 11.7419L41.1111 11.6329C41.3105 11.5518 41.4959 11.4637 41.7023 11.3803L42.2748 11.1299L42.8335 10.8842Z" fill="black" stroke="black" stroke-width="0.96087"/>
<path d="M58.7756 14.4103C59.675 14.9319 60.6278 15.3167 61.6361 15.5624C62.0233 15.6574 62.415 15.7246 62.8114 15.764C64.5963 15.9333 66.0915 15.4488 66.7475 14.3106C67.8625 12.3588 66.1054 9.25259 62.8439 7.36104C60.9222 6.25764 58.9101 5.82417 57.343 6.02352C57.0231 6.06524 56.7102 6.13942 56.4042 6.24605C55.7412 6.45932 55.2289 6.86266 54.8673 7.45608C53.7523 9.40094 55.5025 12.5187 58.7756 14.4103ZM55.1664 7.62994C56.1168 5.98411 58.5577 5.98875 61.2699 7.55808C64.3808 9.35226 66.0452 12.3148 64.9811 14.1599C64.0238 15.8197 61.6315 15.8243 58.8776 14.2341C55.7667 12.4376 54.1023 9.47512 55.1664 7.62994Z" fill="black" stroke="black" stroke-width="0.96087"/>
<mask id="mask0_2159_172" style="mask-type:luminance" maskUnits="userSpaceOnUse" x="55" y="-1" width="167" height="22">
<path d="M55.623 0.462891H221V20.4771H55.623V0.462891Z" fill="white" stroke="white" stroke-width="0.96087"/>
</mask>
<g mask="url(#mask0_2159_172)">
<path d="M178.176 17.4C167.598 17.363 157.025 17.4232 146.453 17.5809C136.211 17.7338 125.905 18.2577 115.649 18.0445C111.219 17.9796 106.82 17.6342 102.455 17.0106L101.649 16.8854L101.247 16.8228L101.048 16.7927H100.857C100.357 16.7046 99.8689 16.5864 99.3917 16.438C98.9088 16.2943 98.4428 16.1205 97.9936 15.9165C97.5556 15.7125 97.1373 15.483 96.7386 15.228C96.3372 14.973 95.9582 14.6949 95.6016 14.3981C95.2451 14.1014 94.9054 13.7908 94.5825 13.464C93.9453 12.808 93.3529 12.1264 92.8054 11.4148C91.7021 10.0054 90.6971 8.55662 89.546 7.23764C88.9873 6.58394 88.3753 5.96502 87.7128 5.38086C87.0727 4.81989 86.3736 4.31455 85.6128 3.86717C84.8969 3.4476 84.1502 3.07439 83.3697 2.74522C82.637 2.43692 81.8846 2.17266 81.1069 1.95244C79.72 1.56532 78.2995 1.31034 76.8424 1.18516C76.1827 1.12257 75.5538 1.0878 74.9811 1.06926C74.4084 1.0484 73.8273 1.04608 73.3051 1.06926C72.2635 1.06926 71.3651 1.12257 70.638 1.16198C69.9109 1.19907 69.3438 1.23848 68.962 1.26398L68.3809 1.30802H68.962C69.3438 1.30802 69.8941 1.2802 70.638 1.26861C71.382 1.25702 72.2635 1.26861 73.2995 1.26861C73.816 1.26861 74.3747 1.31034 74.9615 1.34974C75.5482 1.38683 76.1686 1.44942 76.8256 1.53287C78.2265 1.68818 79.5909 1.96403 80.9216 2.36506C81.6572 2.60382 82.3702 2.8843 83.0581 3.20652C83.788 3.54959 84.4842 3.93207 85.1468 4.3586C85.8402 4.80367 86.4719 5.30205 87.0474 5.84911C87.6482 6.42631 88.2013 7.03596 88.7038 7.67575C89.226 8.32945 89.7145 9.02023 90.2086 9.73651C90.6999 10.4505 91.194 11.1853 91.7246 11.9271C92.2636 12.6897 92.8532 13.4246 93.4933 14.1339C93.8245 14.4932 94.1783 14.8479 94.5629 15.1863C94.9503 15.5317 95.3602 15.8539 95.7982 16.1552C96.2389 16.4612 96.705 16.7394 97.1934 16.9874C97.696 17.2401 98.2182 17.4603 98.7628 17.6458C99.3187 17.8382 99.8886 17.9981 100.473 18.1233L100.579 18.1465H100.68L100.885 18.1836L101.295 18.26L102.115 18.4154C103.49 18.6703 104.886 18.8813 106.304 19.0482L104.796 18.9879L103.426 18.9207L102.732 18.8836L102.031 18.8442L100.607 18.7561L99.1586 18.6634L97.7072 18.5637L96.9604 18.5058L96.2501 18.4617L95.8852 18.4293L95.5286 18.3945L95.1693 18.3597H94.9868L94.8099 18.3412L94.0941 18.26L93.3866 18.1673C92.4545 18.0422 91.5253 17.8915 90.6269 17.7107C89.7566 17.5322 88.9031 17.3143 88.0609 17.0616L87.4601 16.8646L87.3113 16.8159L87.1709 16.7649L86.8986 16.6629L86.6263 16.5493L86.4915 16.496L86.3624 16.438L86.1013 16.3198L85.8515 16.1923C85.1945 15.8585 84.5825 15.476 84.0126 15.0472C82.8026 14.1362 81.7358 13.1209 80.8149 12.0036C80.3012 11.4009 79.7986 10.7657 79.3017 10.1004C78.802 9.43516 78.3051 8.75134 77.7913 8.06055L77.4067 7.53667C77.345 7.45322 77.2664 7.35586 77.1962 7.26777L76.9828 6.99656C76.9463 6.9502 76.9126 6.90383 76.8761 6.85979L76.7582 6.72998L76.5252 6.46804L76.4101 6.33823L76.2894 6.21073L76.0423 5.95806C75.3826 5.29278 74.6498 4.68544 73.8497 4.13606C73.0721 3.60291 72.2439 3.1277 71.3651 2.71277C70.5257 2.3187 69.6582 1.97794 68.757 1.6905C67.9148 1.42392 67.0558 1.19907 66.1798 1.01826C65.3741 0.855995 64.5599 0.728502 63.7402 0.633461L63.1619 0.573191L62.6032 0.531466L62.0557 0.496695L61.8031 0.480469H59.6161C58.698 0.496695 57.7884 0.552329 56.8788 0.649688C56.556 0.679822 56.3145 0.714594 56.1489 0.735456L55.8906 0.765591H56.1489C56.3145 0.765591 56.5616 0.765591 56.8816 0.765591C57.7913 0.749364 58.698 0.772545 59.602 0.835133L60.04 0.869904H60.2674L60.5004 0.893085L60.9664 0.937128L61.4577 0.99508L61.7104 1.02753L61.9659 1.06462L62.4909 1.14112L63.0327 1.2292L63.3078 1.2802L63.5802 1.33352C64.3578 1.48651 65.1214 1.66964 65.8766 1.8829C66.6852 2.11702 67.4712 2.38824 68.2405 2.69886C69.049 3.02339 69.8267 3.3966 70.5678 3.81617C71.3258 4.24733 72.0361 4.72485 72.6959 5.25337C73.3584 5.78653 73.9592 6.36372 74.4982 6.98728L74.6919 7.22141L74.7902 7.34195L74.8828 7.46481L75.0653 7.70589L75.158 7.82643C75.1917 7.86351 75.2141 7.90988 75.2422 7.94928L75.4106 8.19732C75.464 8.28308 75.5201 8.35958 75.5819 8.4523L75.9272 8.98546C76.8565 10.4134 77.752 11.8506 78.7936 13.1788C79.3045 13.8349 79.8576 14.4631 80.4556 15.0658L80.6774 15.286L80.9076 15.5015L81.0199 15.6082L81.135 15.7125L81.368 15.9165L81.6038 16.1158C81.6852 16.1807 81.7582 16.2456 81.8425 16.3082C82.0053 16.4357 82.1625 16.5609 82.3085 16.693C82.9963 17.1984 83.7403 17.6434 84.5376 18.0259L84.8548 18.172L85.3433 18.3806L85.5118 18.4455L85.8458 18.573L86.1912 18.6866L86.3624 18.7445L86.5337 18.7955L87.2243 18.9949C88.1676 19.2452 89.1277 19.4515 90.0991 19.6092C91.0817 19.7668 92.0839 19.8781 93.0834 19.9638L93.8386 20.0218L94.591 20.0635H103.381L104.776 20.0287C105.829 20.0287 106.882 20.0009 107.937 19.9661C111.348 19.9661 114.762 19.8873 118.179 19.9128C121.694 19.9453 125.206 19.9777 128.721 19.9453C138.651 19.8526 148.609 19.6416 158.513 19.2684C168.873 18.9926 179.232 18.7561 189.594 18.5568C200.013 18.3713 210.588 17.764 221.001 18.0561C206.725 17.6666 192.449 17.4487 178.176 17.4Z" fill="black" stroke="black" stroke-width="0.96087"/>
</g>
<path d="M234.192 79.0217C233.939 78.3773 233.823 77.7073 233.844 77.0142C233.865 76.3211 234.022 75.6605 234.314 75.0323C232.279 74.9349 230.369 74.3971 228.584 73.4143C229.567 75.1992 230.105 77.1093 230.202 79.1445C230.83 78.8525 231.491 78.6948 232.184 78.674C232.877 78.6531 233.545 78.769 234.192 79.0217Z" fill="black" stroke="black" stroke-width="0.96087"/>
<path d="M252.038 42.4036V42.1834L252.001 41.7453L251.95 41.3025C251.95 41.2306 251.95 41.1565 251.922 41.0846L251.892 40.8644C251.82 40.2779 251.711 39.6845 251.593 39.098L251.465 38.639C251.43 38.493 251.396 38.347 251.359 38.1986L251.303 37.9784L251.247 37.7605L251.127 37.3177C251.039 37.0257 250.955 36.7336 250.853 36.4415L250.781 36.2213C250.758 36.1494 250.735 36.0753 250.707 36.0034L250.57 35.5653C250.35 34.9881 250.121 34.4109 249.854 33.8499L249.759 33.639L249.655 33.428L249.448 33.0085C249.302 32.728 249.152 32.4475 248.987 32.174C248.663 31.6223 248.306 31.0914 247.919 30.5838C247.821 30.4563 247.717 30.3311 247.617 30.199L247.464 30.0158L247.307 29.8304L247.144 29.6496L247.065 29.5569L246.98 29.4688L246.815 29.2926L246.641 29.1187C246.414 28.8893 246.173 28.6667 245.923 28.4511C245.672 28.2356 245.415 28.0269 245.155 27.8369C245.021 27.7349 244.882 27.6445 244.743 27.5517C244.673 27.5054 244.601 27.4636 244.532 27.4173L244.316 27.2852L244.098 27.1623L243.987 27.102L243.873 27.0441L243.649 26.9282L243.417 26.8215C242.789 26.5341 242.133 26.3301 241.453 26.2096H240.929C240.758 26.2096 240.584 26.1748 240.408 26.1748H239.339C238.975 26.2258 238.621 26.3092 238.275 26.4298C238.104 26.4877 237.934 26.555 237.768 26.6291C237.682 26.6639 237.605 26.7056 237.524 26.7474L237.288 26.8702L236.94 27.0788L236.829 27.1553L236.606 27.313L236.395 27.4868L236.286 27.5703L236.187 27.663L235.987 27.8508L235.802 28.0501L235.711 28.1498L235.626 28.2541L235.456 28.465L235.299 28.6853L235.222 28.7965L235.15 28.9124C235.104 28.9889 235.053 29.0654 235.011 29.1419C234.926 29.2996 234.838 29.4549 234.766 29.6148C234.726 29.6959 234.689 29.7724 234.654 29.8536L234.555 30.0947C234.52 30.1758 234.492 30.2569 234.462 30.338C234.432 30.4192 234.399 30.5026 234.376 30.5838C234.328 30.7483 234.274 30.9152 234.23 31.0798C234.14 31.4113 234.077 31.7451 234.019 32.0743C233.917 32.7326 233.862 33.3933 233.855 34.0585C233.848 34.7076 233.873 35.3567 233.936 36.0034C233.994 36.6455 234.082 37.2783 234.188 37.9019L234.27 38.3678L234.362 38.8291L234.409 39.0586L234.457 39.2904L234.555 39.7587L234.666 40.2107L234.719 40.4379L234.78 40.665L234.9 41.1147L235.028 41.5598L235.093 41.7847L235.162 42.0072L235.296 42.4476L235.438 42.8857L235.507 43.106L235.579 43.3215L235.73 43.755L235.959 44.4018L236.203 45.0346C236.421 45.5956 236.648 46.1542 236.882 46.7036C237.119 47.253 237.364 47.7908 237.61 48.3216L238.342 49.8817L239.784 52.9253C240.234 53.8734 240.672 54.8053 241.099 55.7163L241.718 54.286L241.852 53.987L242.237 53.1826L242.098 52.8952L241.827 52.3296L241.681 52.0259L240.204 49.017L239.457 47.4802C239.212 46.9655 238.971 46.4509 238.739 45.9433C238.509 45.4356 238.282 44.8862 238.067 44.3508L237.904 43.9474L237.747 43.5394L237.594 43.1338L237.443 42.7212L237.371 42.5149L237.302 42.3062L237.16 41.8913L237.026 41.4717L236.956 41.2654L236.891 41.0545L236.764 40.6303L236.646 40.2084L236.583 39.9974L236.525 39.7819L236.414 39.3553L236.31 38.9242L236.261 38.7086L236.214 38.493L236.122 38.0595L236.038 37.6261C235.922 37.0442 235.834 36.4717 235.772 35.8759C235.707 35.2941 235.672 34.7099 235.667 34.1235C235.663 33.5463 235.7 32.9737 235.776 32.4011C235.818 32.1206 235.864 31.8402 235.934 31.5713C235.934 31.4878 235.976 31.402 235.999 31.3186L236.041 31.1679C236.041 31.103 236.085 31.0381 236.106 30.9732C236.129 30.906 236.15 30.8411 236.175 30.7808L236.249 30.5884C236.272 30.5258 236.303 30.4655 236.33 30.403C236.384 30.2755 236.449 30.1619 236.507 30.0413C236.537 29.9834 236.571 29.9277 236.606 29.8698L236.657 29.784L236.711 29.7029L236.822 29.5383L236.94 29.3853L237.003 29.3088L237.068 29.2346L237.197 29.0886L237.336 28.9495L237.406 28.8823L237.628 28.6459L237.786 28.5323L237.863 28.4743L237.948 28.421L238.113 28.3121L238.333 28.1962L238.463 28.1289L238.639 28.0478L238.82 27.9736C239.063 27.8832 239.314 27.8183 239.569 27.7789H241.196L241.4 27.8137L241.704 27.8786L242.007 27.9551L242.207 28.0153L242.306 28.0478C242.439 28.0918 242.568 28.1405 242.691 28.1938L242.786 28.2356L242.983 28.319L243.176 28.4117L243.271 28.4581L243.368 28.5091L243.556 28.6088L243.602 28.6343L243.739 28.7154L243.878 28.7965L243.924 28.8267L244.059 28.9124L244.105 28.9426L244.24 29.0307L244.281 29.0608C244.402 29.1419 244.516 29.2277 244.631 29.3158L244.717 29.3807L244.975 29.58L245.304 29.8652L245.547 30.0854L245.628 30.1619L246.011 30.5444L246.233 30.7878L246.379 30.9523L246.525 31.1192L246.595 31.2027C246.664 31.2861 246.739 31.3673 246.804 31.4554L246.933 31.6176L247.068 31.7915L247.2 31.9676L247.325 32.1438C247.494 32.3826 247.657 32.626 247.81 32.874C247.967 33.1197 248.111 33.3747 248.252 33.6436L248.459 34.0284L248.51 34.1235L248.561 34.2208L248.656 34.4202C248.92 34.9464 249.156 35.4842 249.379 36.0219C249.894 37.2992 250.29 38.6135 250.566 39.9627C250.594 40.1041 250.621 40.2432 250.652 40.3799C250.679 40.519 250.705 40.6581 250.728 40.7995L250.763 41.0104C250.851 41.5714 250.923 42.1347 250.978 42.6957C251.013 43.0735 251.041 43.4583 251.062 43.8477H251.08C251.08 44.0633 251.09 44.2789 251.108 44.4945C251.108 44.6544 251.108 44.8144 251.108 44.9743C251.108 45.6883 251.09 46.3953 251.055 47.0954C251.055 47.2368 251.046 47.3758 251.027 47.5149V47.5868C251.027 47.7328 251.015 47.8789 250.992 48.0226C250.958 48.4398 250.913 48.8525 250.865 49.2628C250.735 50.3175 250.561 51.3421 250.362 52.3388C250.162 53.3333 249.928 54.3092 249.673 55.2503C249.291 56.72 248.841 58.1155 248.387 59.4298L248.167 60.051L248.002 60.5123C247.796 61.0849 247.587 61.6389 247.381 62.1767L247.622 62.7539C247.907 62.0933 248.192 61.4025 248.479 60.6862C249.124 59.0728 249.764 57.3204 250.332 55.4311C250.617 54.4877 250.886 53.5095 251.12 52.4988C251.354 51.4881 251.563 50.4473 251.732 49.3717C251.808 48.8339 251.885 48.2915 251.943 47.7375C251.973 47.4616 251.996 47.1834 252.019 46.9076C252.019 46.7685 252.038 46.6271 252.049 46.488C252.061 46.3489 252.068 46.2075 252.077 46.0661L252.096 45.6419C252.096 45.5005 252.096 45.3591 252.096 45.2154C252.096 44.9326 252.096 44.6428 252.096 44.36C252.096 43.7828 252.096 43.2056 252.038 42.6215V42.4036Z" fill="black" stroke="black" stroke-width="0.96087"/>
<path d="M243.527 71.3299C243.912 70.6043 244.343 69.7165 244.857 68.6734L245.131 68.117L245.027 67.8203L244.681 68.5899C244.204 69.647 243.789 70.551 243.446 71.2812L243.007 72.271L242.678 72.9896C242.504 73.3744 242.405 73.5622 242.4 73.5738C242.398 73.5854 242.511 73.3675 242.701 72.9989L243.527 71.3299Z" fill="black" stroke="black" stroke-width="0.96087"/>
<path d="M241.815 56.7389L241.706 57.0055L241.256 58.0996C241.108 58.4844 240.953 58.8692 240.807 59.254L240.554 59.9054L240.422 60.2369C240.38 60.3482 240.343 60.4594 240.299 60.5707L239.796 61.936C239.14 63.7882 238.486 65.7562 237.874 67.8309C237.728 68.3501 237.587 68.8763 237.441 69.4072L237.332 69.792C237.297 69.9264 237.267 70.0609 237.232 70.1768L237.033 70.9881L236.829 71.8064L236.646 72.6362C236.523 73.1926 236.391 73.7512 236.279 74.3145L236.208 74.7689L236.164 74.9845L236.126 75.2L236.045 75.6312L235.971 76.0647C235.946 76.2107 235.927 76.3567 235.904 76.5028C235.881 76.6488 235.858 76.7949 235.837 76.9455C235.8 77.2399 235.758 77.5366 235.725 77.8334C235.695 78.1278 235.667 78.4314 235.642 78.7328C235.642 78.8811 235.623 79.0364 235.612 79.1848V79.3633H235.707C235.858 79.3633 235.994 79.3633 236.129 79.3633H236.78V79.1964C236.78 79.0503 236.78 78.9089 236.78 78.7675C236.78 78.4778 236.81 78.1903 236.838 77.9006C236.864 77.6131 236.891 77.328 236.917 77.0406C236.917 76.8992 236.952 76.7555 236.968 76.6141C236.984 76.4727 237.003 76.3289 237.021 76.1875L237.079 75.761L237.144 75.3391L237.174 75.1259L237.279 74.493C237.376 73.932 237.487 73.378 237.589 72.824L237.747 72.0011L237.925 71.1875L238.101 70.3808C238.132 70.2463 238.159 70.1119 238.19 69.996L238.287 69.6112C238.412 69.0803 238.54 68.5588 238.669 68.0395C239.242 65.9718 239.826 64.0084 240.422 62.14L240.881 60.7677C240.918 60.6565 240.953 60.5406 240.992 60.4293L241.11 60.0978L241.342 59.4418C241.553 58.8252 241.776 58.2271 241.996 57.6453L242.265 56.9244C242.337 56.7204 242.418 56.5396 242.494 56.324L242.726 55.7352L242.951 55.1603L243.044 54.9216V54.8752L243.16 54.5947L243.609 53.5076L243.829 52.9814L244.075 52.476C244.367 51.8038 244.638 51.1617 244.912 50.5543L245.297 49.6827C245.362 49.5413 245.424 49.4023 245.485 49.2678L245.672 48.883C245.92 48.3614 246.145 47.8677 246.361 47.4226L246.954 46.2033L247.207 45.6864L247.434 45.2367L247.786 44.5274L248.076 43.9525L247.763 44.5181L247.381 45.2089L247.137 45.6516L246.868 46.1593L246.233 47.3531C246.004 47.7912 245.763 48.2757 245.496 48.7903L245.297 49.1751C245.227 49.3095 245.162 49.4486 245.093 49.5877L244.666 50.4477C244.37 51.0365 244.077 51.6693 243.762 52.3346L243.526 52.8376L243.289 53.3569L242.809 54.4186L242.687 54.6944L242.564 54.9749L242.318 55.5521L242.068 56.1316C241.984 56.3426 241.896 56.5396 241.815 56.7389Z" fill="black" stroke="black" stroke-width="0.96087"/>
<path d="M250.476 77.4899C250.314 76.2567 250.091 75.0444 249.864 73.8529C249.639 72.6637 249.347 71.4908 249.034 70.341C248.958 70.0536 248.879 69.7685 248.795 69.4833C248.716 69.2005 248.631 68.9108 248.543 68.6349L248.281 67.7958L248.151 67.3809L248.005 66.9706L247.727 66.1523C247.683 66.0178 247.636 65.8787 247.585 65.7489L247.439 65.3641C247.344 65.0952 247.247 64.8287 247.152 64.5644L246.989 64.1379L246.855 63.7763L246.802 63.6349C246.412 62.6103 246.014 61.6181 245.606 60.6585C245.198 59.7011 244.79 58.76 244.377 57.8374C244.141 57.3251 243.897 56.7942 243.649 56.2472L243.408 56.8661C243.35 57.0168 243.292 57.1582 243.243 57.2973L243 57.9417L242.624 59.0103C242.849 59.5226 243.077 60.0349 243.304 60.5472L243.42 60.8161L243.726 61.5393L243.881 61.9056L243.994 62.1814L244.103 62.4434L244.222 62.7354C244.458 63.315 244.695 63.9038 244.929 64.5064L245.23 65.276L245.353 65.6098L245.513 66.0526L245.652 66.4351L245.775 66.7735L245.793 66.8315L246.083 67.6266L246.22 68.0114L246.352 68.3962L246.614 69.2075C246.702 69.4764 246.783 69.7453 246.862 70.0211C246.943 70.2993 247.024 70.5728 247.101 70.8487C247.411 71.9544 247.696 73.0856 247.947 74.2354C248.197 75.3828 248.42 76.5395 248.589 77.7241C248.765 78.904 248.881 80.0885 248.934 81.28C248.958 81.8757 248.962 82.4668 248.934 83.0603C248.913 83.656 248.86 84.2494 248.772 84.8382C248.689 85.4085 248.561 85.9671 248.39 86.5142C248.369 86.5837 248.343 86.6486 248.32 86.7135L248.25 86.9106L248.174 87.103L248.135 87.198L248.093 87.2907L248.005 87.4762C247.975 87.5364 247.94 87.5944 247.907 87.657C247.847 87.7798 247.773 87.8911 247.706 88.0047V88.0256L247.604 88.1716L247.55 88.2527C247.55 88.2782 247.513 88.3014 247.49 88.3292L247.367 88.4822L247.235 88.6283L247.17 88.7024L247.101 88.7673L246.964 88.9018L246.813 89.0246L246.739 89.0849L246.663 89.1406C246.454 89.2912 246.234 89.4187 245.997 89.523C245.879 89.5694 245.761 89.6273 245.633 89.6668L245.446 89.727L245.253 89.778L245.156 89.8035H245.056L244.857 89.8429H244.653L244.449 89.8707H243.223C243.088 89.8707 242.958 89.8313 242.838 89.8082L242.643 89.7618L242.543 89.7386L242.446 89.7131L242.251 89.6552L242.059 89.5856H242.013L241.966 89.5671L241.871 89.5277C241.809 89.4999 241.744 89.479 241.681 89.4465L241.47 89.3747L241.289 89.2773L241.197 89.2286L241.108 89.1753L240.932 89.0664L240.758 88.9505L240.717 88.925L240.675 88.8925L240.589 88.8322C240.476 88.7511 240.367 88.663 240.255 88.5749L240.095 88.4359L240.014 88.3663L239.938 88.2945L239.783 88.1484L239.634 87.9977L239.488 87.8448L239.344 87.6871C239.252 87.5782 239.157 87.4715 239.073 87.3556C238.987 87.2421 238.895 87.1285 238.811 87.0149C238.644 86.7808 238.484 86.542 238.338 86.2963C238.262 86.1734 238.195 86.0459 238.123 85.9115L238.023 85.7191L237.972 85.6217L237.926 85.5267C237.801 85.2694 237.689 85.0051 237.58 84.7571C237.474 84.5114 237.388 84.2193 237.307 83.9504L237.251 83.7464C237.251 83.7116 237.23 83.6792 237.223 83.6444L237.2 83.5401L237.105 83.1159C237.082 83.0139 237.061 82.905 237.043 82.8006H236.915L236.387 82.7473H235.735L235.768 82.9513C235.791 83.1089 235.812 83.2619 235.844 83.4196L235.937 83.8855L235.958 84.0014L235.985 84.1196L236.043 84.3537C236.127 84.6667 236.224 84.9773 236.331 85.2856C236.44 85.5916 236.563 85.8929 236.716 86.185L236.767 86.2963L236.82 86.4076L236.927 86.6254C237.003 86.7692 237.077 86.9152 237.158 87.0566C237.316 87.3417 237.492 87.6176 237.678 87.8911C237.773 88.0256 237.865 88.16 237.965 88.2759C238.065 88.3895 238.169 88.5355 238.273 88.6584L238.438 88.8485C238.491 88.9087 238.545 88.9737 238.603 89.0316L238.776 89.2124L238.953 89.3886L239.041 89.479L239.133 89.5624L239.321 89.7317C239.453 89.8383 239.579 89.9496 239.706 90.0539L239.806 90.1304L239.857 90.1698L239.91 90.2092L240.121 90.3552L240.318 90.4572L240.441 90.5268L240.552 90.5917L240.779 90.7192L241.009 90.8351C241.085 90.8721 241.166 90.9069 241.248 90.9463L241.366 90.9996L241.47 91.046L241.716 91.1387L241.966 91.2199L242.094 91.2569L242.24 91.2964L242.497 91.3613C242.638 91.3891 242.782 91.4192 242.924 91.4424H243.281L243.545 91.4609H244.576L244.838 91.4378H245.098L245.36 91.396L245.49 91.3729L245.622 91.3427L245.884 91.2801L246.141 91.2036C246.313 91.1526 246.482 91.0808 246.651 91.0159C246.98 90.8814 247.293 90.7192 247.59 90.5268L247.62 90.5036L247.736 90.4271L247.843 90.3436L248.058 90.1698L248.262 89.9843L248.362 89.8939L248.454 89.7919L248.642 89.5926L248.816 89.3863C248.842 89.3515 248.874 89.3167 248.9 89.282L248.981 89.1753C249.034 89.1011 249.087 89.0293 249.138 88.9551C249.233 88.8044 249.335 88.6561 249.414 88.5008C249.458 88.4243 249.502 88.3478 249.542 88.2713L249.658 88.0372L249.716 87.9166L249.764 87.7984L249.869 87.5596L249.961 87.3186C249.991 87.2374 250.022 87.1563 250.049 87.0752C250.263 86.44 250.425 85.7886 250.534 85.128C250.64 84.4836 250.71 83.8345 250.745 83.1831C250.78 82.5364 250.786 81.8943 250.773 81.2614C250.74 79.9981 250.64 78.7417 250.476 77.4899Z" fill="black" stroke="black" stroke-width="0.96087"/>
<path d="M245.983 42.9535C246.577 42.5896 246.98 42.0773 247.193 41.4143C247.302 41.1106 247.377 40.7977 247.416 40.4778C247.627 38.9085 247.182 36.8917 246.078 34.977C244.191 31.7062 241.083 29.9538 239.129 31.0757C237.977 31.734 237.508 33.2292 237.678 35.0118C237.717 35.4082 237.782 35.7999 237.877 36.1894C238.123 37.1977 238.508 38.1505 239.029 39.0475C240.925 42.3253 244.041 44.0754 245.983 42.9535ZM239.21 38.9525C237.62 36.1963 237.622 33.8064 239.284 32.849C241.129 31.7827 244.092 33.4471 245.886 36.5579C247.455 39.2701 247.458 41.711 245.814 42.6614C243.969 43.7254 241.006 42.061 239.21 38.9525Z" fill="black" stroke="black" stroke-width="0.96087"/>
<path d="M181.337 85.7589C181.337 85.8006 181.337 85.847 181.337 85.8887V86.2805C181.48 86.9573 181.708 87.6041 182.018 88.2207L182.125 88.4525L182.241 88.6797L182.299 88.7909L182.359 88.9022L182.482 89.1201C182.524 89.1943 182.57 89.2638 182.614 89.3357C182.656 89.4099 182.702 89.4794 182.748 89.5466C182.839 89.6857 182.932 89.8248 183.031 89.9592C183.224 90.2281 183.416 90.4854 183.648 90.7265C183.877 90.9699 184.086 91.2156 184.315 91.4451L184.489 91.619L184.665 91.7836L184.754 91.8693L184.842 91.9505L185.022 92.1104L185.208 92.268L185.391 92.4233C185.519 92.523 185.641 92.625 185.776 92.7224C186.286 93.1118 186.814 93.4665 187.368 93.791C187.64 93.9533 187.92 94.1063 188.201 94.2523L188.62 94.4586L188.817 94.5815L189.028 94.6788C189.589 94.9431 190.18 95.1749 190.741 95.3928L191.177 95.5504L191.395 95.6246L191.615 95.6965C191.903 95.7961 192.199 95.8773 192.491 95.97L192.932 96.0882L193.152 96.1462L193.372 96.1995L193.813 96.2922L194.255 96.3896C194.844 96.5078 195.435 96.6121 196.024 96.6886L196.242 96.7187L196.462 96.7465L196.903 96.7952L197.341 96.8346H197.779C198.363 96.8764 198.933 96.8879 199.517 96.8926C199.805 96.8926 200.09 96.8926 200.373 96.8926H200.802L201.224 96.874L201.645 96.8462L202.065 96.8161C202.341 96.7929 202.621 96.7697 202.895 96.7396C203.444 96.684 203.991 96.6075 204.529 96.5263C205.6 96.3617 206.646 96.1438 207.659 95.9167C208.669 95.6895 209.664 95.4368 210.605 95.1401C212.492 94.5699 214.244 93.9301 215.86 93.288C216.576 93.0052 217.267 92.727 217.928 92.4488L217.351 92.2309C216.813 92.4373 216.259 92.6459 215.686 92.8522L215.225 93.0191L214.604 93.2184C213.289 93.6705 211.912 94.1086 210.424 94.505C209.483 94.7553 208.502 94.9894 207.513 95.1934C206.52 95.3974 205.482 95.5782 204.436 95.6965C204.026 95.7451 203.614 95.7892 203.196 95.8239L202.76 95.8587H202.689L202.269 95.9074C201.569 95.9491 200.862 95.9677 200.148 95.963H199.666L199.021 95.9352C198.644 95.9144 198.261 95.8865 197.867 95.8518C197.308 95.7961 196.747 95.7243 196.184 95.6362L195.973 95.6014L195.554 95.5249L195.136 95.4391C193.787 95.1633 192.473 94.7669 191.196 94.2523C190.653 94.0298 190.115 93.798 189.594 93.5291L189.392 93.434L189.297 93.383L189.202 93.3343L188.817 93.1257C188.562 92.9843 188.309 92.8406 188.048 92.683C187.786 92.5253 187.556 92.3677 187.317 92.1985L187.141 92.0733L186.965 91.9412L186.791 91.8067L186.629 91.6769C186.545 91.6074 186.46 91.5378 186.376 91.4683L186.29 91.4011L185.961 91.109L185.799 90.9583L185.718 90.8841L185.412 90.5782L185.333 90.5017L185.257 90.4205L185.039 90.1771L184.754 89.848L184.554 89.5907L184.489 89.5049C184.401 89.389 184.315 89.2754 184.234 89.1549L184.204 89.1131L184.116 88.9787L184.086 88.9323L184 88.7979L183.97 88.7515L183.889 88.6124L183.808 88.4757L183.782 88.4293L183.683 88.2416L183.632 88.1442L183.585 88.0492L183.492 87.8568L183.409 87.6597L183.367 87.5647C183.312 87.4325 183.263 87.3051 183.221 87.1799L183.189 87.0802C183.17 87.0153 183.147 86.9458 183.129 86.8808C183.108 86.8136 183.075 86.6792 183.052 86.5772C183.029 86.4729 183.006 86.3732 182.985 86.2735C182.966 86.1738 182.962 86.1391 182.95 86.0695V85.7079C182.95 85.6731 182.95 85.6384 182.95 85.6036C182.95 85.5688 182.95 85.5109 182.95 85.4668C182.95 85.4205 182.95 85.4042 182.95 85.3741C182.95 85.3416 182.95 85.3416 182.95 85.3277C182.95 85.3115 182.95 85.2999 182.95 85.2883C182.95 85.2767 182.95 85.2234 182.95 85.1933C182.95 85.1632 182.95 85.1423 182.95 85.1191C182.95 85.0959 182.95 85.031 182.95 84.9893V84.3936C182.992 84.1363 183.057 83.8882 183.147 83.6448C183.17 83.5822 183.193 83.522 183.221 83.464L183.3 83.2855C183.321 83.2392 183.344 83.1974 183.37 83.1557L183.393 83.114L183.439 83.0259L183.486 82.9355L183.592 82.7709L183.648 82.6875L183.703 82.611L183.819 82.4557L184.007 82.2331L184.077 82.1636L184.216 82.0268L184.362 81.8947L184.436 81.8298L184.512 81.7672L184.665 81.649L184.83 81.5377L184.911 81.4844L184.997 81.4334L185.168 81.3337C185.289 81.2734 185.403 81.2062 185.53 81.1575L185.716 81.0764L185.908 81.0022C185.968 80.9767 186.038 80.9582 186.098 80.935L186.295 80.8678L186.446 80.8261C186.529 80.8029 186.61 80.7797 186.698 80.7611C186.967 80.6916 187.248 80.6452 187.528 80.6035C188.101 80.527 188.673 80.4899 189.251 80.4969C189.837 80.4992 190.421 80.534 191.003 80.5989C191.587 80.6661 192.158 80.7542 192.753 80.8655L193.187 80.9489L193.62 81.0416L193.836 81.088L194.483 81.241L194.909 81.3523L195.125 81.4102L195.336 81.4728L195.758 81.591L196.182 81.7185L196.393 81.7834L196.599 81.853L197.019 81.9874L197.433 82.1288L197.642 82.1983L198.261 82.4209L198.667 82.5762L198.871 82.6527L199.075 82.7338L199.478 82.8938C200.014 83.114 200.547 83.3319 201.071 83.566C201.592 83.8025 202.111 84.0389 202.607 84.2846L204.144 85.031L207.174 86.496L207.478 86.6421L208.041 86.9156L208.331 87.0524L209.133 86.6676L209.434 86.5331L210.897 85.9142L208.108 84.5999L205.062 83.1603L203.498 82.4557C202.969 82.2099 202.427 81.9642 201.88 81.7301C201.335 81.496 200.778 81.2688 200.213 81.0486L199.789 80.8886L199.578 80.8075L199.362 80.731L198.933 80.5757L198.497 80.4273L198.284 80.3532L198.064 80.2836L197.626 80.1422L197.183 80.0078L196.961 79.9382L196.738 79.8733L196.293 79.7458L195.843 79.6276L195.616 79.565L195.389 79.5117L194.935 79.4004L194.478 79.2961L194.248 79.2474L194.017 79.2011L193.555 79.1084L193.089 79.0272C192.468 78.916 191.833 78.8325 191.191 78.7746C190.544 78.7143 189.897 78.6865 189.246 78.6934C188.583 78.7004 187.92 78.756 187.264 78.858C186.933 78.916 186.599 78.9786 186.267 79.069C186.103 79.113 185.938 79.1663 185.773 79.215C185.688 79.2382 185.607 79.2729 185.525 79.3008C185.447 79.3286 185.361 79.3587 185.284 79.3935L185.041 79.4932C184.962 79.5279 184.881 79.565 184.805 79.6044C184.642 79.6763 184.489 79.7667 184.332 79.8501L184.1 79.9892L183.986 80.0611L183.873 80.1376L183.655 80.2952L183.444 80.4644L183.339 80.5502L183.24 80.6429L183.04 80.8261L182.85 81.0254L182.76 81.1274L182.674 81.234L182.5 81.445L182.345 81.6675L182.266 81.7788L182.199 81.8947L182.06 82.1265C182.018 82.203 181.974 82.2841 181.937 82.3629C181.898 82.4441 181.851 82.5206 181.817 82.6063C181.742 82.7709 181.677 82.9401 181.617 83.114C181.499 83.4594 181.413 83.814 181.364 84.178V84.4538C181.364 84.5002 181.364 84.5466 181.364 84.5929V84.9847C181.364 85.0728 181.364 85.1585 181.364 85.2466C181.302 85.4089 181.32 85.585 181.337 85.7589Z" fill="black" stroke="black" stroke-width="0.96087"/>
<path d="M223.849 89.6806C224.89 89.1706 225.771 88.7209 226.506 88.3523L228.172 87.5109C228.557 87.3208 228.738 87.2188 228.75 87.2095C228.761 87.2026 228.539 87.3138 228.165 87.4877L227.442 87.8377L226.462 88.2897C225.724 88.6328 224.82 89.0593 223.773 89.523L223.003 89.8707L223.3 89.9727L223.849 89.6806Z" fill="black" stroke="black" stroke-width="0.96087"/>
<path d="M245.546 92.4486L245.286 92.4904H245.189L244.955 92.5135L244.663 92.5413H243.476L243.214 92.5228H243.195C243.079 92.5923 242.968 92.6642 242.845 92.7268L242.664 92.8218L242.479 92.9099L242.386 92.9516L242.291 92.9911L242.099 93.0675L241.902 93.1371L241.702 93.2066C241.155 93.3782 240.597 93.508 240.026 93.5914C239.447 93.6749 238.863 93.7259 238.274 93.7444C237.683 93.7676 237.092 93.7444 236.496 93.7444C235.304 93.6911 234.12 93.5752 232.94 93.399C231.765 93.2252 230.599 93.0142 229.449 92.7569C228.301 92.4996 227.17 92.2215 226.064 91.9108L225.237 91.6721C224.963 91.5909 224.694 91.5121 224.423 91.4217L223.614 91.1575L223.232 91.0276L222.847 90.8886L222.054 90.6127L221.996 90.5919L221.658 90.469L221.275 90.3322L220.833 90.17L220.499 90.0471L220.114 89.8964L219.729 89.7481C219.126 89.514 218.533 89.2752 217.947 89.0318L217.654 88.9136L217.393 88.8046L217.117 88.691L216.75 88.5357L216.027 88.2297L215.758 88.1138L214.18 87.4532L213.116 87.838L212.469 88.0791L212.038 88.2437L211.419 88.487L213.011 89.2126C213.922 89.6252 214.863 90.0355 215.832 90.4435C216.801 90.8492 217.787 91.2502 218.793 91.6466L218.927 91.6813L219.286 91.8158L219.715 91.9757L220.513 92.2655L220.897 92.4069L221.301 92.5483L222.14 92.8334L222.55 92.9725L222.965 93.1023L223.788 93.3759C224.069 93.4639 224.354 93.5451 224.637 93.6285L225.494 93.8673C226.663 94.1756 227.84 94.4491 229.022 94.6948C230.214 94.9359 231.426 95.1469 232.659 95.3045C233.907 95.4714 235.161 95.5711 236.417 95.6035C237.057 95.6035 237.694 95.6035 238.339 95.578C238.992 95.5432 239.639 95.4714 240.284 95.3671C240.949 95.2581 241.6 95.0959 242.238 94.8826C242.319 94.8548 242.398 94.8246 242.479 94.7945L242.722 94.7018L242.959 94.5975L243.079 94.5442L243.198 94.4862L243.429 94.3703L243.659 94.2451C243.814 94.1594 243.962 94.0597 244.113 93.967C244.185 93.9183 244.259 93.8626 244.331 93.8093L244.44 93.7282C244.477 93.7027 244.51 93.6702 244.547 93.6447L244.755 93.4709L244.955 93.2831L245.054 93.1904L245.147 93.0907L245.33 92.8867L245.504 92.6712C245.532 92.6364 245.562 92.6039 245.59 92.5645L245.666 92.4486L245.689 92.4185H245.581L245.546 92.4486Z" fill="black" stroke="black" stroke-width="0.96087"/>
<path d="M210.167 87.3892L209.886 87.5121L209.61 87.635L208.548 88.1171L208.029 88.3512L207.526 88.59C206.866 88.9029 206.23 89.195 205.639 89.4917L204.779 89.9183L204.367 90.1223L203.982 90.3262L202.545 91.0634L201.351 91.6985L200.843 91.9674L200.4 92.2085L199.71 92.5933L199.144 92.9062L199.721 92.6165L200.424 92.2641L200.873 92.037L201.393 91.7866L202.61 91.1955L204.044 90.5256L204.429 90.3378L204.844 90.1501L205.716 89.7653C206.316 89.4871 206.958 89.2182 207.637 88.9261L208.15 88.7036L208.676 88.4857L209.763 88.036L210.044 87.9201H210.09L210.329 87.8274L210.906 87.6002L211.492 87.3707C211.69 87.2942 211.877 87.2131 212.093 87.1389L212.816 86.87C213.4 86.6521 213.996 86.4296 214.61 86.2163L215.266 85.9868L215.602 85.8686L215.941 85.7573L217.313 85.2984C219.172 84.7026 221.157 84.1185 223.215 83.5876L224.787 83.2051L225.172 83.1078L225.556 83.0197L226.363 82.8435L227.179 82.665L228.02 82.4541C228.574 82.3498 229.126 82.2385 229.689 82.1435L230.322 82.0391L230.533 82.009L230.957 81.9441L231.384 81.8862L231.811 81.8328L232.249 81.7818C232.531 81.7517 232.821 81.7216 233.109 81.6984C233.398 81.6752 233.681 81.659 233.973 81.6404H236.349L236.477 81.6868H236.583L237.015 81.7285H237.23L237.443 81.7587L237.629 81.812L237.84 81.8514H237.933L238.266 81.9117L238.691 82.009L238.809 82.0693H238.913L239.117 82.1272C239.388 82.2084 239.66 82.3011 239.924 82.4008C240.188 82.5004 240.455 82.6163 240.693 82.7462L240.788 82.7925L240.904 82.8389L241.088 82.9548C241.21 83.0266 241.343 83.0916 241.472 83.1704C241.718 83.3164 241.957 83.4764 242.191 83.6433C242.307 83.7267 242.423 83.8125 242.534 83.9029C242.645 83.9956 242.752 84.0837 242.863 84.1764L243.009 84.3178L243.165 84.4638L243.313 84.6145L243.459 84.7675L243.533 84.8463L243.603 84.9251L243.739 85.0874C243.83 85.1987 243.918 85.3076 243.997 85.4212L244.059 85.507L244.099 85.5302L244.129 85.5719L244.245 85.7457C244.282 85.8014 244.317 85.864 244.351 85.9219L244.405 86.01L244.456 86.1027L244.548 86.2974L244.637 86.4829C244.667 86.5432 244.69 86.6104 244.718 86.6706L244.755 86.768L244.773 86.812V86.8584L244.843 87.0508C244.866 87.1157 244.882 87.1829 244.901 87.2478L244.931 87.3522L244.97 87.4518L245.017 87.6466C245.035 87.781 245.065 87.9131 245.077 88.0314V88.131C245.079 88.1658 245.079 88.1983 245.077 88.2307V88.7152H245.128L245.193 88.692L245.281 88.6619H245.316L245.448 88.6086L245.543 88.5668C245.703 88.4926 245.854 88.4069 245.997 88.3049L246.067 88.2539L246.104 88.2191L246.22 88.1287L246.37 87.9827L246.408 87.9363L246.461 87.8784L246.507 87.825L246.561 87.7555C246.537 87.6118 246.507 87.4704 246.482 87.329C246.454 87.1853 246.438 87.1551 246.415 87.0717C246.391 86.9859 246.391 86.9859 246.38 86.9442L246.343 86.8167C246.315 86.7332 246.292 86.6475 246.262 86.5663L246.169 86.3206L246.146 86.2603L246.12 86.1978L246.067 86.0795C246.032 85.9984 245.997 85.9173 245.958 85.8408L245.84 85.6113L245.712 85.3841L245.647 85.2729L245.578 85.1639C245.531 85.092 245.485 85.0179 245.439 84.9483L245.293 84.7374L245.255 84.6841L245.216 84.6331L245.14 84.5334C245.04 84.3966 244.929 84.2691 244.817 84.1486L244.648 83.9608L244.562 83.8681L244.474 83.78L244.298 83.5992L244.117 83.4277L243.932 83.2608L243.744 83.1008C243.614 82.9965 243.487 82.8899 243.359 82.7925C243.234 82.6975 243.095 82.5978 242.974 82.5051C242.703 82.3196 242.425 82.1435 242.142 81.9858C241.999 81.9001 241.853 81.8282 241.711 81.754L241.491 81.6474L241.38 81.5941L241.268 81.5431C240.974 81.4063 240.673 81.2858 240.367 81.1583C240.058 81.0331 239.75 80.9566 239.439 80.8708L239.205 80.8129L239.085 80.7874L238.971 80.7642L238.505 80.6715L238.037 80.595L237.803 80.5602L237.569 80.5324L237.332 80.5069L237.098 80.4837L236.63 80.449H236.164C236.011 80.449 235.853 80.449 235.7 80.449H234.319L233.867 80.4791C233.568 80.5069 233.264 80.5301 232.967 80.5625C232.671 80.5973 232.372 80.6367 232.079 80.6761L231.637 80.741L231.199 80.8106L230.765 80.8824L230.334 80.9636L230.118 81.0007L229.942 81.0331L229.516 81.1166C228.95 81.2278 228.389 81.36 227.835 81.4828L227.005 81.6659L226.187 81.8699L225.369 82.0693L224.984 82.1713L224.599 82.2779L223.023 82.7114C220.953 83.3071 218.985 83.9608 217.132 84.6331L215.721 85.1222L215.387 85.245L215.055 85.3748L214.402 85.6298C214.019 85.7759 213.634 85.9289 213.25 86.0795L212.153 86.5316L211.889 86.6405C211.69 86.7216 211.504 86.8097 211.298 86.8932L210.725 87.1435L210.167 87.3892Z" fill="black" stroke="black" stroke-width="0.96087"/>
<path d="M194.224 83.8631C193.325 83.3416 192.372 82.9568 191.364 82.7111C190.977 82.616 190.585 82.5488 190.189 82.5094C188.404 82.3402 186.908 82.8247 186.252 83.9628C185.137 85.9146 186.895 89.0209 190.156 90.9124C192.078 92.0158 194.09 92.4493 195.657 92.2499C195.977 92.2082 196.29 92.134 196.596 92.0274C197.259 91.8141 197.771 91.4108 198.133 90.8174C199.248 88.8725 197.498 85.7547 194.224 83.8631ZM197.834 90.6435C196.883 92.2893 194.442 92.2847 191.73 90.7154C188.619 88.9212 186.955 85.9587 188.019 84.1135C188.976 82.4538 191.368 82.4491 194.122 84.0393C197.233 85.8358 198.898 88.7983 197.834 90.6435Z" fill="black" stroke="black" stroke-width="0.96087"/>
<mask id="mask1_2159_172" style="mask-type:luminance" maskUnits="userSpaceOnUse" x="31" y="77" width="167" height="22">
<path d="M197.377 97.8105H32V77.7964H197.377V97.8105Z" fill="white" stroke="white" stroke-width="0.96087"/>
</mask>
<g mask="url(#mask1_2159_172)">
<path d="M74.8236 80.8734C85.402 80.9105 95.9747 80.8502 106.547 80.6926C116.789 80.5396 127.095 80.0157 137.351 80.229C141.781 80.2939 146.18 80.6393 150.545 81.2628L151.351 81.388L151.753 81.4506L151.952 81.4807H152.143C152.643 81.5688 153.131 81.687 153.608 81.8354C154.091 81.9791 154.557 82.153 155.006 82.357C155.444 82.5609 155.863 82.7904 156.261 83.0454C156.663 83.3004 157.042 83.5786 157.398 83.8753C157.755 84.172 158.095 84.4826 158.417 84.8095C159.055 85.4655 159.647 86.147 160.195 86.8586C161.298 88.268 162.303 89.7168 163.454 91.0358C164.013 91.6895 164.625 92.3084 165.287 92.8926C165.927 93.4535 166.626 93.9589 167.387 94.4063C168.103 94.8258 168.85 95.1991 169.63 95.5282C170.363 95.8365 171.115 96.1008 171.893 96.321C173.28 96.7081 174.701 96.9631 176.158 97.0883C176.817 97.1509 177.446 97.1856 178.019 97.2042C178.592 97.225 179.173 97.2274 179.695 97.2042C180.736 97.2042 181.635 97.1509 182.362 97.1115C183.089 97.0744 183.656 97.035 184.038 97.0095L184.619 96.9654H184.038C183.656 96.9654 183.106 96.9932 182.362 97.0048C181.618 97.0164 180.736 97.0048 179.701 97.0048C179.184 97.0048 178.625 96.9631 178.039 96.9237C177.452 96.8866 176.831 96.824 176.174 96.7406C174.774 96.5853 173.409 96.3094 172.078 95.9084C171.343 95.6696 170.63 95.3891 169.942 95.0669C169.212 94.7238 168.516 94.3414 167.853 93.9148C167.16 93.4698 166.528 92.9714 165.953 92.4243C165.352 91.8471 164.799 91.2375 164.296 90.5977C163.774 89.944 163.286 89.2532 162.791 88.5369C162.3 87.823 161.806 87.0881 161.275 86.3464C160.736 85.5837 160.147 84.8489 159.507 84.1396C159.175 83.7802 158.822 83.4256 158.437 83.0871C158.05 82.7418 157.64 82.4195 157.202 82.1182C156.761 81.8122 156.295 81.534 155.807 81.286C155.304 81.0333 154.782 80.8131 154.237 80.6277C153.681 80.4353 153.111 80.2753 152.527 80.1502L152.421 80.127H152.32L152.115 80.0899L151.705 80.0134L150.885 79.8581C149.51 79.6031 148.114 79.3921 146.696 79.2252L148.204 79.2855L149.574 79.3527L150.268 79.3898L150.969 79.4292L152.393 79.5173L153.841 79.61L155.293 79.7097L156.04 79.7677L156.75 79.8117L157.115 79.8442L157.471 79.8789L157.831 79.9137H158.013L158.19 79.9323L158.906 80.0134L159.613 80.1061C160.545 80.2313 161.475 80.382 162.373 80.5628C163.243 80.7413 164.097 80.9592 164.939 81.2118L165.54 81.4089L165.689 81.4575L165.829 81.5085L166.101 81.6105L166.374 81.7241L166.508 81.7774L166.638 81.8354L166.899 81.9536L167.149 82.0811C167.805 82.4149 168.418 82.7974 168.987 83.2262C170.197 84.1372 171.264 85.1525 172.185 86.2699C172.699 86.8726 173.201 87.5077 173.698 88.173C174.198 88.8383 174.695 89.5221 175.209 90.2129L175.593 90.7368C175.655 90.8202 175.734 90.9176 175.804 91.0057L176.017 91.2769C176.054 91.3232 176.087 91.3696 176.124 91.4136L176.242 91.5435L176.475 91.8054L176.59 91.9352L176.711 92.0627L176.958 92.3154C177.617 92.9807 178.35 93.588 179.15 94.1374C179.928 94.6705 180.756 95.1457 181.635 95.5607C182.474 95.9547 183.342 96.2955 184.243 96.5829C185.085 96.8495 185.944 97.0744 186.82 97.2552C187.626 97.4174 188.44 97.5449 189.26 97.64L189.838 97.7002L190.397 97.742L190.944 97.7767L191.197 97.793H193.384C194.302 97.7767 195.212 97.7211 196.121 97.6237C196.444 97.5936 196.685 97.5588 196.851 97.538L197.109 97.5078H196.851C196.685 97.5078 196.438 97.5078 196.118 97.5078C195.209 97.5241 194.302 97.5009 193.398 97.4383L192.96 97.4035H192.733L192.5 97.3804L192.034 97.3363L191.542 97.2784L191.29 97.2459L191.034 97.2088L190.509 97.1323L189.967 97.0442L189.692 96.9932L189.42 96.9399C188.642 96.7869 187.879 96.6038 187.123 96.3905C186.315 96.1564 185.529 95.8852 184.76 95.5746C183.951 95.25 183.173 94.8768 182.432 94.4573C181.674 94.0261 180.964 93.5486 180.304 93.0201C179.642 92.4869 179.041 91.9097 178.502 91.2862L178.308 91.052L178.21 90.9315L178.117 90.8086L177.935 90.5676L177.842 90.447C177.808 90.4099 177.786 90.3636 177.758 90.3242L177.589 90.0761C177.536 89.9904 177.48 89.9139 177.418 89.8211L177.073 89.288C176.144 87.86 175.248 86.4228 174.206 85.0946C173.695 84.4386 173.142 83.8104 172.544 83.2077L172.323 82.9875L172.092 82.7719L171.98 82.6653L171.865 82.5609L171.632 82.357L171.396 82.1576C171.315 82.0927 171.242 82.0278 171.158 81.9652C170.995 81.8377 170.838 81.7125 170.692 81.5804C170.004 81.0751 169.26 80.63 168.462 80.2475L168.145 80.1015L167.657 79.8928L167.488 79.8279L167.154 79.7005L166.809 79.5869L166.638 79.5289L166.466 79.4779L165.776 79.2786C164.832 79.0282 163.872 78.8219 162.901 78.6643C161.918 78.5066 160.916 78.3954 159.917 78.3096L159.161 78.2517L158.409 78.2099H149.619L148.224 78.2447C147.171 78.2447 146.118 78.2725 145.063 78.3073C141.652 78.3073 138.238 78.3861 134.821 78.3606C131.306 78.3282 127.794 78.2957 124.279 78.3282C114.349 78.4209 104.391 78.6318 94.4868 79.005C84.1274 79.2809 73.768 79.5173 63.4058 79.7167C52.9875 79.9021 42.4119 80.5095 31.9991 80.2174C46.2749 80.6068 60.5507 80.8247 74.8236 80.8734Z" fill="black" stroke="black" stroke-width="0.96087"/>
</g>
<path d="M64.2641 41.2441C64.2771 42.416 63.8148 43.3861 62.8773 44.1543C61.9529 44.9095 60.5401 45.3066 58.6391 45.3457C55.9047 45.3848 53.893 44.5775 52.6039 42.9238L52.5062 44.3301C52.4932 45.1634 52.4737 46.3743 52.4477 47.9629C52.4086 49.265 52.3891 50.502 52.3891 51.6738C53.0531 51.1921 54.1404 50.7298 55.6508 50.2871C56.5492 50.0267 57.337 49.877 58.0141 49.8379C58.2094 49.8379 58.4047 49.9095 58.6 50.0527C59.2771 50.6777 60.0714 51.3939 60.9828 52.2012C61.0609 52.2793 61.1 52.3444 61.1 52.3965C61.1 52.5788 60.9633 52.6634 60.6898 52.6504C59.9607 52.5853 59.0167 52.6634 57.8578 52.8848C56.5948 53.1191 55.1885 53.627 53.6391 54.4082C53.3917 54.5254 53.2029 54.5059 53.0727 54.3496C52.8904 54.1934 52.6755 53.9395 52.4281 53.5879C52.4151 53.9655 52.4021 54.3887 52.3891 54.8574C52.376 55.235 52.376 55.5215 52.3891 55.7168C52.376 56.6022 52.4021 57.9824 52.4672 59.8574C53.2875 59.4668 54.4464 59.252 55.9437 59.2129C58.7693 59.1478 61.2432 59.8509 63.3656 61.3223C63.7953 61.6217 64.0102 61.8496 64.0102 62.0059C64.0102 62.097 63.9646 62.2142 63.8734 62.3574C63.7042 62.6439 63.3656 63.0931 62.8578 63.7051C62.5974 64.0306 62.1742 64.5384 61.5883 65.2285C62.3826 65.0072 63.0531 64.929 63.6 64.9941C63.8604 65.0332 63.9516 65.1504 63.8734 65.3457C63.6 65.9186 63.3786 66.3418 63.2094 66.6152C63.1182 66.7454 62.8448 66.7715 62.3891 66.6934C60.7615 66.4329 59.518 66.0684 58.6586 65.5996C58.3331 65.4303 58.3005 65.2155 58.5609 64.9551C59.1078 64.4863 59.824 63.8613 60.7094 63.0801C60.9047 62.8978 61.0089 62.7871 61.0219 62.748C61.0219 62.6829 60.9177 62.5918 60.7094 62.4746C60.2927 62.2272 59.6612 62.11 58.8148 62.123C57.031 62.1361 55.1234 62.696 53.0922 63.8027C52.2198 64.2715 51.2497 64.9746 50.182 65.9121C49.8956 66.1595 49.5831 66.153 49.2445 65.8926C48.7367 65.4499 47.8318 64.7012 46.5297 63.6465C46.2693 63.4642 46.1977 63.3014 46.3148 63.1582C46.4581 62.9759 46.6143 62.9629 46.7836 63.1191L46.9594 63.2559C47.1026 63.3861 47.3044 63.2884 47.5648 62.9629C47.7862 62.6895 48.1378 62.2923 48.6195 61.7715C49.2576 61.1855 49.8695 60.821 50.4555 60.6777C49.9346 60.5736 49.4984 60.3457 49.1469 59.9941C48.9776 59.8249 48.906 59.4538 48.932 58.8809C48.919 58.0475 48.9125 57.0059 48.9125 55.7559C48.9516 53.36 48.9516 51.6283 48.9125 50.5605C48.8734 49.584 48.8474 48.1257 48.8344 46.1855C48.8344 45.7689 48.8279 45.502 48.8148 45.3848C48.8018 45.2546 48.7888 44.9941 48.7758 44.6035C48.7628 44.3301 48.6391 44.2194 48.4047 44.2715L47.0375 44.5645C46.8292 44.6035 46.725 44.4993 46.725 44.252C46.725 44.1478 46.8096 44.0371 46.9789 43.9199C47.4477 43.5944 48.3331 42.9108 49.6352 41.8691C50.7549 40.9577 51.5102 40.2936 51.9008 39.877C52.3435 39.4082 52.8839 38.7507 53.5219 37.9043L54.2055 38.3145C54.1143 38.7702 53.9711 39.1478 53.7758 39.4473C54.2706 39.1217 54.6612 38.9915 54.9477 39.0566C55.2211 39.1087 55.8201 39.584 56.7445 40.4824C58.0206 41.7194 59.3422 42.3249 60.7094 42.2988C61.8161 42.2728 62.3891 41.9668 62.4281 41.3809C61.725 41.3809 61.3734 41.0228 61.3734 40.3066C61.3734 39.5905 61.7641 39.2324 62.5453 39.2324C63.6651 39.2324 64.238 39.903 64.2641 41.2441ZM76.8711 64.7988L76.5977 65.3652C76.5326 65.4954 76.3633 65.5085 76.0898 65.4043L73.2578 64.3691C72.8932 64.2389 72.5677 64.0436 72.2812 63.7832C72.0078 63.5228 71.8451 63.1387 71.793 62.6309C71.7409 62.2012 71.7148 61.498 71.7148 60.5215C71.7148 60.0918 71.7344 59.5124 71.7734 58.7832C71.8125 57.9629 71.832 57.3965 71.832 57.084C71.8451 55.7559 71.8516 54.9551 71.8516 54.6816C71.8255 52.8587 71.7865 51.5306 71.7344 50.6973C71.6953 50.2155 71.6432 49.5189 71.5781 48.6074C71.5651 48.2298 71.3828 47.9889 71.0312 47.8848C70.862 47.8327 70.5495 47.9108 70.0937 48.1191C69.599 48.3535 69.2214 48.5618 68.9609 48.7441V51.4785C69 53.9915 69.0326 55.6322 69.0586 56.4004C69.1107 58.002 69.026 59.2064 68.8047 60.0137L68.4141 61.498C68.2969 61.8887 68.1081 62.097 67.8477 62.123C67.6133 62.1621 67.3464 62.0579 67.0469 61.8105L64.332 59.623C64.1888 59.5059 64.1107 59.4212 64.0977 59.3691C64.0977 59.3171 64.2083 59.278 64.4297 59.252L64.957 59.1738C65.2956 59.1087 65.4648 58.8939 65.4648 58.5293L65.4844 51.9668C65.4714 50.9772 65.4648 49.8249 65.4648 48.5098C65.4648 48.2363 65.4193 48.054 65.3281 47.9629C65.224 47.8978 65.0612 47.8978 64.8398 47.9629L63.5703 48.3926C63.3229 48.4707 63.1992 48.4251 63.1992 48.2559C63.1992 48.0996 63.2904 47.9564 63.4727 47.8262L67.2422 45.2871C67.7109 44.9616 67.9909 44.7988 68.082 44.7988C68.2253 44.7988 68.375 44.8444 68.5312 44.9355C68.6094 44.9876 68.6615 45.1178 68.6875 45.3262L68.8633 46.5176C69.319 46.2702 70.0677 45.9316 71.1094 45.502C71.3828 45.3848 71.6562 45.4043 71.9297 45.5605C72.2161 45.7038 72.5742 45.9512 73.0039 46.3027C73.668 46.8626 74.1497 47.2988 74.4492 47.6113C74.6576 47.8197 74.7943 48.1061 74.8594 48.4707C74.9766 49.1478 75.0742 49.9095 75.1523 50.7559C75.2435 51.7454 75.2956 52.5137 75.3086 53.0605C75.3346 53.6855 75.3672 54.4733 75.4062 55.4238C75.4062 56.4004 75.3802 57.4876 75.3281 58.6855C75.276 59.6751 75.263 60.8275 75.2891 62.1426C75.2891 62.5072 75.3216 63.0215 75.3867 63.6855C75.3997 63.7507 75.4388 63.8809 75.5039 64.0762C75.582 64.3236 75.7643 64.4538 76.0508 64.4668L76.7734 64.4863C76.8385 64.4863 76.8841 64.4928 76.9102 64.5059C76.9753 64.5449 76.9622 64.6426 76.8711 64.7988ZM86.3531 45.7949C86.3531 45.9772 86.2294 46.1465 85.982 46.3027L83.5406 47.8066C83.3193 47.9499 83.1695 47.9694 83.0914 47.8652L82.9352 47.6895C82.87 47.5983 82.8766 47.5137 82.9547 47.4355L83.2867 47.1426C83.4169 47.0384 83.4299 46.8366 83.3258 46.5371L82.5641 44.291C82.4469 43.9395 82.3427 43.7637 82.2516 43.7637C82.1734 43.7637 82.1409 43.946 82.1539 44.3105V45.0137C82.1669 45.4824 82.1865 46.1204 82.2125 46.9277C82.2255 47.6309 82.2581 48.6725 82.3102 50.0527C82.3362 50.7949 82.4404 52.2272 82.6227 54.3496C82.6357 54.6621 82.6682 55.1374 82.7203 55.7754C82.7464 56.153 82.8115 56.3809 82.9156 56.459L83.3648 56.7324C83.5471 56.8496 83.6383 56.9603 83.6383 57.0645C83.6253 57.1165 83.5667 57.1426 83.4625 57.1426L82.6422 57.1816C82.3687 57.1816 81.5549 57.1751 80.2008 57.1621C79.8362 57.1621 79.3284 57.1621 78.6773 57.1621L78.0133 57.123C77.9221 57.1361 77.831 57.0645 77.7398 56.9082C77.7398 56.8431 77.844 56.7389 78.0523 56.5957L78.5992 56.2051C78.7685 56.0749 78.8531 55.9251 78.8531 55.7559V53.002C78.8531 52.7415 78.8661 51.4915 78.8922 49.252V45.4629C78.8792 44.1738 78.8661 43.653 78.8531 43.9004C78.8661 43.5488 78.6643 43.373 78.2477 43.373H76.9391C76.6786 43.373 76.5549 43.334 76.568 43.2559C76.581 43.2038 76.6721 43.1126 76.8414 42.9824L80.4742 40.4629C80.7997 40.2285 81.0211 40.1113 81.1383 40.1113C81.2685 40.1113 81.4898 40.209 81.8023 40.4043C81.8935 40.4564 81.9456 40.5801 81.9586 40.7754L82.0758 42.1035C82.0888 42.4421 82.1734 42.5658 82.3297 42.4746C82.6292 42.2793 82.9221 42.1035 83.2086 41.9473C83.4299 41.8171 83.6839 41.6803 83.9703 41.5371C84.3349 41.3548 84.719 41.7064 85.1227 42.5918C85.2398 42.8392 85.4742 43.4186 85.8258 44.3301L86.1187 45.0332C86.275 45.4368 86.3531 45.6908 86.3531 45.7949ZM96.4406 55.9121C96.4276 56.6673 96.343 57.3509 96.1867 57.9629C96.1216 58.2754 96.0044 58.5944 95.8352 58.9199C95.6268 59.3366 94.8716 59.8509 93.5695 60.4629C92.5669 60.9316 91.8443 61.2051 91.4016 61.2832C91.0891 61.3353 90.7701 61.2376 90.4445 60.9902C89.8326 60.5475 89.2531 60.0658 88.7062 59.5449C88.4589 59.3236 88.0812 58.9655 87.5734 58.4707C87.3391 58.2363 87.1047 57.9629 86.8703 57.6504C86.7792 57.5592 86.688 57.3249 86.5969 56.9473C86.5578 55.6582 86.5513 54.1868 86.5773 52.5332C86.5904 52.0254 86.6164 51.2702 86.6555 50.2676C86.0435 50.0462 85.5617 49.916 85.2102 49.877C85.1711 49.5645 85.2622 49.2129 85.4836 48.8223C85.5357 48.8483 85.7635 48.9199 86.1672 49.0371C86.2974 49.0892 86.4862 49.1608 86.7336 49.252C86.7727 49.0957 86.8247 48.8223 86.8898 48.4316C86.9159 48.2754 87.007 48.1387 87.1633 48.0215C87.7362 47.696 88.4914 47.2663 89.4289 46.7324C90.1581 46.3027 90.9263 45.9186 91.7336 45.5801C91.994 45.4629 92.274 45.4824 92.5734 45.6387C92.7818 45.7428 93.1854 46.0033 93.7844 46.4199C94.3964 46.8236 94.9107 47.2402 95.3273 47.6699C95.5878 47.9434 95.7505 48.2363 95.8156 48.5488C95.9849 49.4863 96.1021 50.3392 96.1672 51.1074C96.2453 51.7585 96.3234 52.6113 96.4016 53.666C96.4276 54.5514 96.4406 55.3001 96.4406 55.9121ZM92.2805 47.2988C92.2935 47.1165 92.2805 46.9603 92.2414 46.8301C91.7466 47.1816 91.0044 47.696 90.0148 48.373C90.0018 48.4512 89.9953 48.6074 89.9953 48.8418C89.9953 48.8809 90.0018 48.946 90.0148 49.0371C90.0279 49.1152 90.0279 49.1934 90.0148 49.2715C90.2232 49.2064 90.438 49.1152 90.6594 48.998C90.7896 48.946 91.0435 48.8027 91.4211 48.5684C91.7076 48.36 91.9029 48.1582 92.007 47.9629C92.1633 47.6895 92.2544 47.4681 92.2805 47.2988ZM92.8664 54.6816C92.8534 53.7962 92.8208 52.9303 92.7687 52.084C92.7167 51.3158 92.6581 50.6452 92.593 50.0723C92.5799 49.877 92.4497 49.7728 92.2023 49.7598C91.8768 49.7337 91.5773 49.7663 91.3039 49.8574C90.9003 49.9876 90.4706 50.1504 90.0148 50.3457V53.2754C90.0279 53.9395 90.0604 54.9811 90.1125 56.4004C90.1255 56.9342 90.1646 57.722 90.2297 58.7637C90.2427 58.9199 90.3078 59.0762 90.425 59.2324C90.5552 59.3887 90.731 59.571 90.9523 59.7793C91.0565 59.8835 91.2062 59.9095 91.4016 59.8574C91.649 59.7793 91.9615 59.6426 92.3391 59.4473C92.4693 59.3822 92.5604 59.2194 92.6125 58.959C92.6776 58.4902 92.7362 57.8913 92.7883 57.1621C92.8534 56.1855 92.8794 55.3587 92.8664 54.6816ZM105.845 61.8105C105.91 61.9147 105.812 62.0254 105.552 62.1426L103.149 63.1582C102.563 63.4056 102.218 63.5293 102.114 63.5293C101.789 63.5163 101.548 63.4382 101.391 63.2949C101.365 63.2689 101.216 63.0736 100.942 62.709C100.851 62.5658 100.421 61.9212 99.6531 60.7754L98.5203 61.2246C98.3641 61.2767 98.2469 61.2962 98.1687 61.2832C98.1036 61.2832 98.0581 61.2441 98.032 61.166C97.9669 60.9447 98.0385 60.7689 98.2469 60.6387L98.7156 60.3457C98.8328 60.2676 98.9435 60.1048 99.0477 59.8574C99.0867 59.7923 99.1323 59.5775 99.1844 59.2129C99.2104 58.9004 99.2495 58.4186 99.3016 57.7676C99.4057 56.6478 99.4773 55.4954 99.5164 54.3105C99.6336 51.7064 99.6922 50.3001 99.6922 50.0918C99.6922 48.3991 99.7117 46.9993 99.7508 45.8926C99.7508 45.8405 99.7443 44.6165 99.7312 42.2207C99.7573 41.3743 99.7703 40.3001 99.7703 38.998C99.7443 38.5684 99.5685 38.3861 99.243 38.4512L98.4031 38.5879C98.2078 38.6139 98.1036 38.5423 98.0906 38.373C98.0906 38.1908 98.1492 38.054 98.2664 37.9629C98.2794 37.9499 98.7286 37.7285 99.6141 37.2988C99.9526 37.1165 100.649 36.7845 101.704 36.3027C102.225 36.0163 102.869 35.7038 103.637 35.3652C103.95 35.2611 104.106 35.3652 104.106 35.6777C104.106 35.7428 104.08 35.7949 104.028 35.834C103.703 36.1465 103.527 36.3158 103.501 36.3418C103.358 36.5241 103.279 36.778 103.266 37.1035C103.292 38.2103 103.318 39.6165 103.345 41.3223C103.345 41.5176 103.364 42.6764 103.403 44.7988C103.39 46.127 103.384 47.7611 103.384 49.7012C103.397 50.2741 103.358 51.5306 103.266 53.4707C103.188 55.3587 103.097 56.8496 102.993 57.9434C102.967 58.1387 102.941 58.2559 102.915 58.2949C102.902 58.334 102.824 58.3926 102.68 58.4707C102.472 58.5879 102.199 58.7311 101.86 58.9004V58.9395C102.225 58.8613 102.537 58.8809 102.798 58.998C102.915 59.2454 103.071 59.5449 103.266 59.8965C103.605 60.5605 103.898 61.0944 104.145 61.498C104.249 61.6803 104.438 61.752 104.712 61.7129L105.376 61.6348C105.61 61.6087 105.766 61.6673 105.845 61.8105ZM113.276 61.8105C113.341 61.9147 113.243 62.0254 112.983 62.1426L110.58 63.1582C109.995 63.4056 109.649 63.5293 109.545 63.5293C109.22 63.5163 108.979 63.4382 108.823 63.2949C108.797 63.2689 108.647 63.0736 108.373 62.709C108.282 62.5658 107.853 61.9212 107.084 60.7754L105.952 61.2246C105.795 61.2767 105.678 61.2962 105.6 61.2832C105.535 61.2832 105.489 61.2441 105.463 61.166C105.398 60.9447 105.47 60.7689 105.678 60.6387L106.147 60.3457C106.264 60.2676 106.375 60.1048 106.479 59.8574C106.518 59.7923 106.564 59.5775 106.616 59.2129C106.642 58.9004 106.681 58.4186 106.733 57.7676C106.837 56.6478 106.909 55.4954 106.948 54.3105C107.065 51.7064 107.123 50.3001 107.123 50.0918C107.123 48.3991 107.143 46.9993 107.182 45.8926C107.182 45.8405 107.176 44.6165 107.162 42.2207C107.189 41.3743 107.202 40.3001 107.202 38.998C107.176 38.5684 107 38.3861 106.674 38.4512L105.834 38.5879C105.639 38.6139 105.535 38.5423 105.522 38.373C105.522 38.1908 105.58 38.054 105.698 37.9629C105.711 37.9499 106.16 37.7285 107.045 37.2988C107.384 37.1165 108.08 36.7845 109.135 36.3027C109.656 36.0163 110.301 35.7038 111.069 35.3652C111.381 35.2611 111.537 35.3652 111.537 35.6777C111.537 35.7428 111.511 35.7949 111.459 35.834C111.134 36.1465 110.958 36.3158 110.932 36.3418C110.789 36.5241 110.711 36.778 110.698 37.1035C110.724 38.2103 110.75 39.6165 110.776 41.3223C110.776 41.5176 110.795 42.6764 110.834 44.7988C110.821 46.127 110.815 47.7611 110.815 49.7012C110.828 50.2741 110.789 51.5306 110.698 53.4707C110.62 55.3587 110.528 56.8496 110.424 57.9434C110.398 58.1387 110.372 58.2559 110.346 58.2949C110.333 58.334 110.255 58.3926 110.112 58.4707C109.903 58.5879 109.63 58.7311 109.291 58.9004V58.9395C109.656 58.8613 109.968 58.8809 110.229 58.998C110.346 59.2454 110.502 59.5449 110.698 59.8965C111.036 60.5605 111.329 61.0944 111.577 61.498C111.681 61.6803 111.87 61.752 112.143 61.7129L112.807 61.6348C113.041 61.6087 113.198 61.6673 113.276 61.8105ZM149.525 54.7988C149.564 55.8275 149.115 56.752 148.177 57.5723C146.797 58.5618 145.417 59.5514 144.037 60.541L140.17 63.3145C139.87 63.5488 139.466 63.8092 138.959 64.0957C138.516 64.1738 138.197 64.1478 138.002 64.0176C137.91 63.9525 137.663 63.7441 137.259 63.3926C137.103 63.2493 136.374 62.5658 135.072 61.3418C134.955 61.4199 133.64 62.403 131.127 64.291C130.554 64.7077 130.039 64.7598 129.584 64.4473C129.492 64.3822 129.252 64.1738 128.861 63.8223C128.692 63.679 127.956 62.9954 126.654 61.7715L125.345 62.6504C125.033 62.8717 124.824 62.8978 124.72 62.7285C124.577 62.4681 124.616 62.2272 124.838 62.0059L125.345 61.498C125.476 61.3678 125.573 61.1335 125.638 60.7949C125.703 60.4043 125.723 59.8835 125.697 59.2324C125.658 58.5814 125.612 57.7025 125.56 56.5957C125.573 55.541 125.573 54.1673 125.56 52.4746C125.521 51.7194 125.528 50.554 125.58 48.9785L125.658 45.9316C125.658 45.7884 125.677 45.0202 125.716 43.627C125.742 42.4551 125.749 41.7454 125.736 41.498C125.554 41.3939 125.183 41.0618 124.623 40.502C124.167 40.0592 123.92 39.8379 123.88 39.8379C123.828 39.8379 123.783 39.8574 123.744 39.8965L123.529 40.0527C123.216 40.3132 123.06 40.2285 123.06 39.7988C123.06 39.4863 123.288 39.1217 123.744 38.7051C124.108 38.4056 124.479 38.1061 124.857 37.8066C125.469 37.2858 125.97 36.8822 126.361 36.5957C126.595 36.4264 126.836 36.459 127.084 36.6934C127.292 36.9408 127.637 37.2988 128.119 37.7676C128.783 38.3405 129.291 38.7832 129.642 39.0957C129.903 39.3431 130.026 39.6882 130.013 40.1309C129.987 40.9642 129.974 41.6413 129.974 42.1621C129.974 42.6048 129.948 43.4186 129.896 44.6035C129.857 45.7754 129.838 46.5501 129.838 46.9277C129.838 50.209 129.844 51.6478 129.857 51.2441C129.818 52.4681 129.798 53.7051 129.798 54.9551C129.798 55.8275 129.851 57.0189 129.955 58.5293C130.254 58.8678 130.612 59.278 131.029 59.7598C131.758 60.6061 132.344 61.2311 132.787 61.6348L133.822 60.7949C134.056 60.5996 134.154 60.3652 134.115 60.0918C134.089 59.9095 134.089 59.4798 134.115 58.8027C134.141 58.1387 134.128 57.2598 134.076 56.166C134.089 54.7858 134.082 53.0866 134.056 51.0684C134.069 50.1569 134.076 49.0566 134.076 47.7676C134.05 46.9082 134.024 45.6257 133.998 43.9199C133.972 41.8105 133.946 40.2741 133.92 39.3105C133.907 38.959 133.763 38.6986 133.49 38.5293L132.963 38.2168C132.702 38.0605 132.572 37.9434 132.572 37.8652C132.572 37.6309 132.67 37.5007 132.865 37.4746C133.516 37.3965 134.447 37.2663 135.658 37.084C137.038 36.8757 137.995 36.6868 138.529 36.5176C138.998 36.3743 139.232 36.459 139.232 36.7715C139.232 36.8757 139.186 36.9928 139.095 37.123C138.574 37.8001 138.314 39.0892 138.314 40.9902C138.314 41.5371 138.301 42.5007 138.275 43.8809C138.249 45.2611 138.236 46.1335 138.236 46.498C138.236 46.9798 138.223 47.9108 138.197 49.291C138.184 50.6582 138.177 51.3613 138.177 51.4004C138.177 51.7389 138.184 52.2598 138.197 52.9629C138.21 53.7311 138.216 54.252 138.216 54.5254C138.203 55.3978 138.255 56.5892 138.373 58.0996C138.672 58.4382 139.03 58.8483 139.447 59.3301C139.603 59.5254 139.994 59.929 140.619 60.541C140.788 60.7103 141.009 60.7949 141.283 60.7949C141.726 60.7949 142.175 60.6257 142.63 60.2871L143.705 59.4863C144.929 58.5749 145.521 57.3184 145.482 55.7168C145.456 54.3236 144.759 52.3314 143.392 49.7402C141.647 46.4329 140.801 43.5944 140.853 41.2246C140.892 39.2715 141.433 37.6374 142.474 36.3223C143.451 35.0723 144.479 34.4342 145.56 34.4082C147.084 34.3561 147.845 34.9746 147.845 36.2637C147.845 37.1621 147.416 37.6243 146.556 37.6504C145.736 37.6634 145.326 37.2858 145.326 36.5176C145.326 36.153 145.482 35.7624 145.795 35.3457C145.703 35.3327 145.619 35.3262 145.541 35.3262C144.343 35.3262 143.789 36.7454 143.88 39.584C143.972 42.5007 144.929 44.5905 146.752 45.8535C146.895 45.9316 147.045 46.0098 147.201 46.0879C147.357 46.166 147.435 46.2572 147.435 46.3613C147.435 46.4785 147.344 46.6283 147.162 46.8105C147.045 47.0059 146.778 47.2858 146.361 47.6504C146.726 47.6243 147.266 47.5202 147.982 47.3379C147.813 47.6634 147.728 48.0085 147.728 48.373C147.728 48.8548 148.008 49.7728 148.568 51.127C149.154 52.5202 149.473 53.7441 149.525 54.7988ZM155.921 40.7949C155.96 40.9382 155.895 41.0553 155.726 41.1465L153.655 42.2207C153.096 42.4941 152.737 42.6374 152.581 42.6504C152.269 42.6504 152.047 42.5853 151.917 42.4551C151.787 42.3118 151.624 42.123 151.429 41.8887C151.325 41.7454 151.175 41.5306 150.98 41.2441C150.902 41.153 150.758 41.1335 150.55 41.1855L150.062 41.3027C149.918 41.3418 149.801 41.3092 149.71 41.2051C149.567 41.0358 149.599 40.8991 149.808 40.7949L150.179 40.6191C150.557 40.4499 151.097 40.196 151.8 39.8574C152.178 39.6751 152.659 39.4538 153.245 39.1934C153.558 39.0501 153.805 39.1087 153.987 39.3691C154.079 39.4863 154.202 39.6686 154.359 39.916C154.476 40.0853 154.632 40.3001 154.827 40.5605C154.984 40.7819 155.146 40.8535 155.316 40.7754L155.648 40.6191C155.778 40.5671 155.869 40.6257 155.921 40.7949ZM157.952 60.1504L157.777 60.4238C157.685 60.541 157.523 60.541 157.288 60.4238L154.085 58.8418C153.642 58.6204 153.33 58.4251 153.148 58.2559C152.835 57.9564 152.679 57.5658 152.679 57.084C152.692 56.9277 152.685 56.5957 152.659 56.0879C152.646 55.5671 152.64 55.1895 152.64 54.9551C152.64 54.7988 152.633 54.3561 152.62 53.627C152.607 52.9499 152.601 52.4225 152.601 52.0449C152.601 50.86 152.594 49.8379 152.581 48.9785C152.62 48.4316 152.601 47.2988 152.523 45.5801C152.484 45.1634 152.301 44.9876 151.976 45.0527L151.155 45.248C150.986 45.2871 150.895 45.2155 150.882 45.0332C150.856 44.8118 150.895 44.6751 150.999 44.623C151.312 44.5059 151.774 44.3236 152.386 44.0762C152.868 43.8678 153.512 43.5879 154.32 43.2363C154.84 42.9759 155.478 42.6764 156.234 42.3379C156.338 42.2988 156.448 42.3184 156.566 42.3965C156.683 42.4616 156.741 42.5462 156.741 42.6504C156.728 42.7155 156.702 42.7676 156.663 42.8066C156.195 43.2754 155.96 43.7116 155.96 44.1152C155.96 44.5189 155.98 45.1178 156.019 45.9121C156.032 46.9017 156.058 48.3535 156.097 50.2676C156.11 50.6712 156.136 51.3092 156.175 52.1816C156.214 52.9629 156.234 53.4902 156.234 53.7637C156.234 55.1439 156.221 56.1009 156.195 56.6348C156.182 57.1556 156.182 57.5853 156.195 57.9238C156.208 58.2884 156.227 58.5033 156.253 58.5684C156.305 58.7246 156.455 58.8809 156.702 59.0371L157.757 59.7402C157.965 59.8835 158.03 60.0202 157.952 60.1504ZM171.458 60.4629C171.458 61.9473 170.898 62.6699 169.778 62.6309C168.958 62.6178 168.554 62.1686 168.567 61.2832C168.58 60.9967 168.697 60.7298 168.919 60.4824C169.153 60.222 169.42 60.0918 169.72 60.0918C170.032 60.0918 170.318 60.2806 170.579 60.6582C170.449 59.252 169.277 58.5488 167.063 58.5488C165.436 58.5488 164.062 59.3822 162.942 61.0488C162.656 61.4915 162.506 61.7129 162.493 61.7129C162.402 61.7129 162.278 61.6152 162.122 61.4199C161.249 60.3652 160.494 59.5449 159.856 58.959C159.7 58.8158 159.414 58.9134 158.997 59.252C158.919 59.3301 158.847 59.3691 158.782 59.3691C158.678 59.3691 158.574 59.2845 158.47 59.1152C158.378 58.946 158.339 58.8092 158.352 58.7051C158.365 58.6009 158.45 58.4772 158.606 58.334C159.908 57.2142 161.887 55.4629 164.544 53.0801C163.684 53.041 162.968 53.054 162.395 53.1191C162.252 53.1322 162.148 53.1061 162.083 53.041C162.018 52.9759 162.005 52.8783 162.044 52.748C162.109 52.5267 162.265 52.3965 162.512 52.3574C163.268 52.2402 164.212 52.2272 165.345 52.3184C167.298 50.3913 168.248 49.0176 168.196 48.1973C167.988 48.5618 167.805 48.8353 167.649 49.0176C167.493 49.1999 167.369 49.291 167.278 49.291C167.2 49.291 167.122 49.2064 167.044 49.0371C166.94 48.8158 166.868 48.679 166.829 48.627C165.8 47.5723 164.401 47.0449 162.63 47.0449C162.005 47.0449 161.334 47.2337 160.618 47.6113C159.785 48.054 159.329 48.5879 159.251 49.2129C159.55 48.8223 159.843 48.627 160.13 48.627C160.416 48.627 160.664 48.7637 160.872 49.0371C161.08 49.2975 161.184 49.584 161.184 49.8965C161.197 50.7689 160.82 51.2181 160.052 51.2441C158.958 51.2832 158.411 50.5931 158.411 49.1738C158.411 47.6504 159.192 46.459 160.755 45.5996C162.044 44.8965 163.522 44.5449 165.188 44.5449C167.259 44.5449 169.082 45.1829 170.657 46.459C171.152 46.8626 171.399 47.3053 171.399 47.7871C171.399 48.347 171.002 49.0892 170.208 50.0137C169.57 50.7559 168.652 51.6217 167.454 52.6113C168.183 52.7546 168.71 52.8978 169.036 53.041C169.27 53.1452 169.374 53.2949 169.348 53.4902C169.322 53.7897 169.186 53.8874 168.938 53.7832C168.47 53.5749 167.708 53.3991 166.653 53.2559C165.52 54.1152 164.023 55.2936 162.161 56.791L162.18 56.8496C163.118 56.1986 164.492 55.873 166.302 55.873C167.512 55.873 168.626 56.2507 169.641 57.0059C170.852 57.8913 171.458 59.0436 171.458 60.4629ZM182.873 55.2871C182.691 55.4824 182.502 55.6582 182.307 55.8145C181.916 56.1139 181.37 56.5957 180.666 57.2598C180.536 57.403 180.347 57.6178 180.1 57.9043C179.814 58.2689 179.371 58.4251 178.772 58.373C178.629 58.36 178.446 58.3079 178.225 58.2168C178.134 58.1257 178.036 57.9499 177.932 57.6895C177.88 57.5592 177.815 57.3965 177.737 57.2012C177.567 57.3184 177.327 57.4876 177.014 57.709C176.754 57.8913 176.545 58.0475 176.389 58.1777C176.129 58.36 175.946 58.4642 175.842 58.4902C175.751 58.5163 175.569 58.5228 175.295 58.5098C174.892 58.4967 174.638 58.4121 174.534 58.2559C174.442 58.0996 174.351 57.8978 174.26 57.6504C174.091 57.2077 173.863 56.5632 173.577 55.7168C173.407 55.196 173.173 54.4668 172.873 53.5293C172.769 53.1387 172.698 52.8522 172.659 52.6699C172.607 52.3965 172.607 52.1686 172.659 51.9863C172.75 51.6738 173.101 51.2311 173.713 50.6582C174.091 50.3197 174.56 50.0007 175.12 49.7012C175.549 49.4798 175.933 49.3171 176.272 49.2129C176.402 49.1608 176.662 49.0762 177.053 48.959C177.196 48.959 177.411 49.0111 177.698 49.1152C177.724 49.2454 177.685 49.3496 177.58 49.4277C176.721 50.0788 176.194 50.5475 175.998 50.834C175.998 51.2637 176.005 51.5697 176.018 51.752C176.044 51.9863 176.116 52.39 176.233 52.9629C176.298 53.3014 176.415 53.7311 176.584 54.252C176.793 54.877 177.021 55.5345 177.268 56.2246C177.567 56.0684 177.789 55.9251 177.932 55.7949C177.984 55.209 178.049 54.1934 178.127 52.748C178.166 51.9277 178.179 50.86 178.166 49.5449C178.153 48.8678 178.127 47.8587 178.088 46.5176C178.088 46.4264 178.062 45.9512 178.01 45.0918C177.997 44.8314 177.886 44.7467 177.678 44.8379C177.366 44.9681 177.099 45.0918 176.877 45.209L175.862 45.7168C175.653 45.821 175.504 45.9186 175.412 46.0098C175.295 46.14 175.217 46.3548 175.178 46.6543C175.165 46.7324 175.133 47.0319 175.08 47.5527C175.054 47.9564 174.931 48.002 174.709 47.6895C174.644 47.5983 174.475 47.3118 174.202 46.8301C174.084 46.6348 173.922 46.3418 173.713 45.9512C173.713 45.9382 173.518 45.4954 173.127 44.623C173.036 44.3887 173.03 44.2194 173.108 44.1152C173.173 44.0501 173.336 43.9264 173.596 43.7441C173.804 43.6009 174.729 43.0605 176.37 42.123C176.591 42.0059 176.806 41.8952 177.014 41.791C177.157 41.7259 177.327 41.791 177.522 41.9863C177.912 42.39 178.498 43.002 179.28 43.8223C179.735 44.3301 180.243 44.9225 180.803 45.5996C181.077 45.9251 181.278 46.2767 181.409 46.6543C181.5 46.9538 181.558 47.3184 181.584 47.748C181.61 48.2949 181.623 48.985 181.623 49.8184C181.623 51.2116 181.617 52.0449 181.604 52.3184C181.591 52.9694 181.565 53.9329 181.526 55.209C181.682 55.235 181.897 55.248 182.17 55.248C182.222 55.248 182.34 55.2546 182.522 55.2676C182.704 55.2806 182.821 55.2871 182.873 55.2871ZM192.531 45.7949C192.531 45.9772 192.408 46.1465 192.16 46.3027L189.719 47.8066C189.497 47.9499 189.348 47.9694 189.27 47.8652L189.113 47.6895C189.048 47.5983 189.055 47.5137 189.133 47.4355L189.465 47.1426C189.595 47.0384 189.608 46.8366 189.504 46.5371L188.742 44.291C188.625 43.9395 188.521 43.7637 188.43 43.7637C188.352 43.7637 188.319 43.946 188.332 44.3105V45.0137C188.345 45.4824 188.365 46.1204 188.391 46.9277C188.404 47.6309 188.436 48.6725 188.488 50.0527C188.514 50.7949 188.618 52.2272 188.801 54.3496C188.814 54.6621 188.846 55.1374 188.898 55.7754C188.924 56.153 188.99 56.3809 189.094 56.459L189.543 56.7324C189.725 56.8496 189.816 56.9603 189.816 57.0645C189.803 57.1165 189.745 57.1426 189.641 57.1426L188.82 57.1816C188.547 57.1816 187.733 57.1751 186.379 57.1621C186.014 57.1621 185.507 57.1621 184.855 57.1621L184.191 57.123C184.1 57.1361 184.009 57.0645 183.918 56.9082C183.918 56.8431 184.022 56.7389 184.23 56.5957L184.777 56.2051C184.947 56.0749 185.031 55.9251 185.031 55.7559V53.002C185.031 52.7415 185.044 51.4915 185.07 49.252V45.4629C185.057 44.1738 185.044 43.653 185.031 43.9004C185.044 43.5488 184.842 43.373 184.426 43.373H183.117C182.857 43.373 182.733 43.334 182.746 43.2559C182.759 43.2038 182.85 43.1126 183.02 42.9824L186.652 40.4629C186.978 40.2285 187.199 40.1113 187.316 40.1113C187.447 40.1113 187.668 40.209 187.98 40.4043C188.072 40.4564 188.124 40.5801 188.137 40.7754L188.254 42.1035C188.267 42.4421 188.352 42.5658 188.508 42.4746C188.807 42.2793 189.1 42.1035 189.387 41.9473C189.608 41.8171 189.862 41.6803 190.148 41.5371C190.513 41.3548 190.897 41.7064 191.301 42.5918C191.418 42.8392 191.652 43.4186 192.004 44.3301L192.297 45.0332C192.453 45.4368 192.531 45.6908 192.531 45.7949ZM205.197 57.4551C205.197 57.5072 205.099 57.5983 204.904 57.7285L201.056 60.209C200.705 60.4303 200.418 60.528 200.197 60.502C200.158 60.4889 199.995 60.3913 199.709 60.209C199.604 60.1439 199.559 60.0202 199.572 59.8379L199.65 58.7832C199.038 59.0827 198.296 59.3952 197.423 59.7207C197.163 59.8249 196.89 59.7923 196.603 59.623C196.486 59.5579 196.089 59.2845 195.412 58.8027C194.787 58.347 194.305 57.9368 193.966 57.5723C193.745 57.3118 193.608 57.0189 193.556 56.6934C193.478 56.1595 193.413 55.3913 193.361 54.3887C193.296 53.1777 193.263 52.4095 193.263 52.084C193.263 51.485 193.276 50.7298 193.302 49.8184C193.315 49.1022 193.393 48.1712 193.537 47.0254C193.615 46.7129 193.745 46.4004 193.927 46.0879C194.071 45.8145 194.377 45.5475 194.845 45.2871C195.002 45.209 195.867 44.89 197.443 44.3301C197.782 44.2129 198.12 44.1348 198.459 44.0957C198.732 44.0566 199.058 44.1868 199.435 44.4863C199.63 44.6426 199.813 44.7923 199.982 44.9355C199.995 43.2559 200.002 42.377 200.002 42.2988C199.976 41.6087 199.93 40.6387 199.865 39.3887C199.852 39.1543 199.728 39.0371 199.494 39.0371H198.009C197.892 39.0371 197.834 38.959 197.834 38.8027C197.834 38.6725 197.918 38.5618 198.087 38.4707C198.543 38.1973 199.097 37.8066 199.748 37.2988C200.438 36.7389 201.004 36.2311 201.447 35.7754C201.746 35.4759 202.248 34.9095 202.951 34.0762C203.016 33.972 203.127 33.8223 203.283 33.627C203.452 33.4316 203.537 33.5098 203.537 33.8613C203.537 34.7858 203.53 36.179 203.517 38.041C203.517 38.3535 203.485 40.0853 203.42 43.2363C203.393 44.7858 203.328 47.1751 203.224 50.4043C203.159 52.2793 203.068 54.3952 202.951 56.752C202.925 57.1035 203.12 57.2858 203.537 57.2988L204.826 57.3379C205.073 57.3509 205.197 57.39 205.197 57.4551ZM199.63 48.9785C199.63 48.054 199.617 47.2988 199.591 46.7129C199.578 46.5697 199.513 46.4199 199.396 46.2637C199.279 46.0944 199.116 45.9056 198.908 45.6973C198.699 45.4889 198.485 45.4238 198.263 45.502C197.964 45.6191 197.658 45.8275 197.345 46.127C197.176 46.2702 197.072 46.446 197.033 46.6543C196.981 46.9538 196.935 47.4616 196.896 48.1777C196.857 48.7507 196.818 49.5514 196.779 50.5801C196.74 52.416 196.733 53.7441 196.759 54.5645C196.772 55.0332 196.798 55.7103 196.837 56.5957C196.837 56.9733 197.013 57.2142 197.365 57.3184C197.534 57.3835 197.808 57.3639 198.185 57.2598C198.576 57.1426 198.999 56.9928 199.455 56.8105L199.552 53.9004C199.604 51.3613 199.63 49.7207 199.63 48.9785Z" fill="#2F3729"/>
</svg>
