<svg width="518" height="456" viewBox="0 0 518 456" fill="none" xmlns="http://www.w3.org/2000/svg">
<path d="M261.44 386.652C259.914 385.819 259.423 384.564 259.434 382.831C259.501 375.245 259.457 367.67 259.468 360.084C259.468 357.951 260.928 356.596 262.811 356.885C263.814 357.04 264.461 357.685 265.029 358.473C267.213 361.517 269.454 364.527 271.605 367.592C272.24 368.492 272.563 368.614 273.254 367.626C275.394 364.549 277.623 361.539 279.83 358.507C280.877 357.063 281.981 356.585 283.273 356.974C284.711 357.407 285.391 358.484 285.391 360.35C285.391 367.792 285.346 375.234 285.424 382.676C285.447 384.442 284.968 385.752 283.418 386.641C282.85 386.641 282.293 386.641 281.724 386.641C280.186 385.908 279.651 384.72 279.685 383.02C279.774 378.722 279.718 374.412 279.707 370.114C279.707 369.68 279.897 369.203 279.451 368.692C278.046 370.624 276.676 372.502 275.305 374.39C273.388 377.011 271.404 377.011 269.487 374.368C268.105 372.457 266.723 370.547 265.118 368.325C265.118 373.457 265.051 378.166 265.152 382.876C265.185 384.608 264.684 385.864 263.112 386.641C262.566 386.652 261.998 386.652 261.44 386.652Z" fill="#3274B9"/>
<path d="M142.167 386.638C141.844 386.272 141.387 386.394 140.986 386.305C133.318 384.65 128.503 377.397 129.495 368.967C130.365 361.503 136.829 355.893 144.407 356.005C151.462 356.116 157.726 362.091 158.55 369.233C159.553 377.897 153.68 385.361 146.302 386.438C146.235 386.449 146.179 386.56 146.112 386.627C144.797 386.638 143.482 386.638 142.167 386.638ZM143.917 380.818C145.009 380.829 146.068 380.696 147.071 380.24C150.715 378.597 152.643 375.698 152.833 371.799C153.022 367.856 151.406 364.69 147.851 362.736C144.842 361.081 141.053 361.603 138.411 363.891C135.413 366.501 134.321 370.944 135.736 374.787C137.04 378.363 140.295 380.762 143.917 380.818Z" fill="#3474B9"/>
<path d="M216.884 386.653C215.335 385.842 214.878 384.553 214.889 382.843C214.956 375.401 214.912 367.97 214.923 360.529C214.923 358.718 215.502 357.729 216.806 357.285C218.177 356.819 219.247 357.263 220.373 358.796C224.039 363.772 227.684 368.759 231.351 373.735C231.618 374.09 231.774 374.557 232.409 374.801C232.409 373.624 232.409 372.524 232.409 371.425C232.409 367.726 232.398 364.038 232.409 360.34C232.42 358.54 233.58 357.263 235.162 357.241C236.789 357.219 238.015 358.54 238.015 360.395C238.026 368.07 237.993 375.745 238.038 383.409C238.049 384.975 237.269 385.92 236.054 386.664C235.485 386.664 234.928 386.664 234.36 386.664C233.446 386.086 232.755 385.286 232.12 384.409C228.598 379.566 225.065 374.746 221.521 369.914C221.264 369.559 220.975 369.237 220.529 368.715C220.529 373.613 220.473 378.233 220.562 382.854C220.596 384.576 220.105 385.842 218.567 386.664C218.01 386.653 217.453 386.653 216.884 386.653Z" fill="#3474B9"/>
<path d="M309.376 386.653C307.826 385.842 307.369 384.553 307.381 382.843C307.447 375.401 307.403 367.97 307.414 360.529C307.414 358.718 307.994 357.729 309.298 357.285C310.668 356.819 311.738 357.263 312.864 358.796C316.531 363.772 320.175 368.759 323.842 373.735C324.109 374.09 324.265 374.557 324.889 374.801C324.889 373.624 324.889 372.524 324.889 371.425C324.889 367.726 324.878 364.038 324.889 360.34C324.901 358.54 326.06 357.263 327.642 357.241C329.269 357.219 330.495 358.54 330.495 360.395C330.506 368.07 330.473 375.745 330.518 383.409C330.529 384.975 329.749 385.92 328.534 386.664C327.965 386.664 327.408 386.664 326.84 386.664C325.926 386.075 325.235 385.286 324.6 384.409C321.078 379.566 317.545 374.746 314.001 369.914C313.744 369.559 313.455 369.237 313.009 368.715C313.009 373.613 312.953 378.233 313.042 382.854C313.076 384.576 312.585 385.842 311.047 386.664C310.501 386.653 309.933 386.653 309.376 386.653Z" fill="#3474B9"/>
<path d="M339.256 386.653C337.696 385.842 337.25 384.554 337.261 382.843C337.328 375.368 337.284 367.882 337.295 360.396C337.295 357.819 338.264 356.842 340.872 356.875C343.447 356.908 346.033 356.653 348.574 357.297C355.495 359.063 360.031 365.072 359.875 372.303C359.719 379.089 354.726 384.965 347.916 386.364C347.649 386.42 347.348 386.376 347.158 386.653C344.528 386.653 341.898 386.653 339.256 386.653ZM342.968 371.647C342.968 374.413 342.979 377.179 342.968 379.933C342.968 380.544 342.968 381 343.826 381.011C346.556 381.066 349.053 380.467 351.126 378.612C354.157 375.913 355.049 371.636 353.399 367.971C351.75 364.306 347.816 362.117 343.759 362.484C342.845 362.562 342.979 363.095 342.979 363.639C342.968 366.316 342.968 368.982 342.968 371.647Z" fill="#3474B9"/>
<path d="M375.074 386.64C372.054 385.774 369.145 384.685 366.649 382.708C365.735 381.986 365.166 381.131 365.345 379.943C365.657 377.821 367.897 376.977 369.758 378.321C371.597 379.654 373.536 380.798 375.81 381.164C378.128 381.542 380.324 381.153 382.196 379.687C384.135 378.165 383.957 376.311 381.806 375.089C380.19 374.178 378.407 373.767 376.612 373.423C374.484 373.023 372.399 372.467 370.494 371.412C364.832 368.28 364.62 361.416 370.115 357.973C373.536 355.84 377.225 355.462 381.07 356.629C382.965 357.206 384.681 358.184 386.308 359.305C387.612 360.205 387.924 361.771 387.122 363.004C386.32 364.248 384.782 364.603 383.411 363.793C382.196 363.082 381.059 362.249 379.722 361.771C377.314 360.927 374.985 361.083 372.879 362.56C370.928 363.926 371.051 365.537 373.113 366.703C374.773 367.647 376.635 367.958 378.462 368.347C380.624 368.802 382.731 369.435 384.648 370.579C390.098 373.856 390.332 380.398 385.183 384.152C383.4 385.452 381.338 385.963 379.309 386.618C377.894 386.64 376.479 386.64 375.074 386.64Z" fill="#3474B9"/>
<path d="M192.076 386.648C190.515 385.837 190.07 384.549 190.081 382.838C190.148 375.352 190.103 367.866 190.114 360.379C190.114 357.858 191.084 356.869 193.58 356.869C197.671 356.869 201.75 356.869 205.84 356.869C207.857 356.869 209.194 357.969 209.239 359.635C209.272 361.346 207.913 362.512 205.829 362.523C202.875 362.534 199.911 362.567 196.957 362.501C196.01 362.479 195.742 362.801 195.787 363.7C195.854 365.055 195.865 366.422 195.787 367.766C195.731 368.732 196.11 368.943 197.002 368.921C199.398 368.865 201.794 368.898 204.19 368.91C206.408 368.921 207.623 369.92 207.634 371.709C207.645 373.519 206.408 374.563 204.235 374.563C201.794 374.574 199.353 374.596 196.913 374.552C196.066 374.53 195.754 374.774 195.798 375.652C195.865 377.096 195.854 378.551 195.798 380.006C195.765 380.816 196.066 381.039 196.857 381.028C199.721 380.994 202.585 381.016 205.45 381.016C207.612 381.016 208.593 381.55 209.072 382.971C209.551 384.382 209.105 385.326 207.333 386.67C202.229 386.648 197.147 386.648 192.076 386.648Z" fill="#3473B8"/>
<path d="M167.824 386.649C166.308 385.816 165.807 384.561 165.818 382.829C165.885 375.342 165.84 367.856 165.851 360.37C165.851 357.86 166.843 356.827 169.329 356.871C172.238 356.927 175.158 356.538 178.044 357.093C182.77 358.004 185.968 362.291 185.556 367.001C185.155 371.666 181.165 375.331 176.384 375.431C175.213 375.453 174.032 375.52 172.862 375.409C171.68 375.298 171.457 375.787 171.491 376.842C171.569 378.852 171.424 380.874 171.535 382.873C171.636 384.617 171.067 385.861 169.507 386.638C168.95 386.649 168.381 386.649 167.824 386.649ZM171.469 366.19C171.491 366.19 171.502 366.19 171.524 366.19C171.524 367.123 171.547 368.056 171.513 368.989C171.491 369.6 171.725 369.811 172.327 369.8C173.597 369.766 174.857 369.822 176.127 369.789C178.189 369.733 179.794 368.267 179.894 366.357C180.006 364.446 178.401 362.724 176.339 362.536C175.971 362.502 175.592 362.491 175.213 362.525C174.021 362.613 172.427 361.991 171.736 362.813C171.145 363.502 171.524 365.024 171.469 366.19Z" fill="#3473B8"/>
<path d="M296.681 386.648C295.121 385.848 294.664 384.56 294.675 382.849C294.742 375.274 294.697 367.71 294.708 360.135C294.708 358.114 295.834 356.847 297.573 356.87C299.122 356.892 300.359 358.025 300.359 359.613C300.381 367.699 300.37 375.785 300.381 383.871C300.381 385.304 299.434 386.004 298.375 386.648C297.807 386.648 297.249 386.648 296.681 386.648Z" fill="#3473B8"/>
<path d="M69.0669 263.282C69.0669 260.194 69.0669 257.095 69.0669 254.007C69.4012 246.488 69.9474 238.979 71.0173 231.515C72.9342 218.242 76.144 205.302 80.7469 192.706C87.5119 174.191 96.9071 157.13 109.044 141.558C124.134 122.209 142.357 106.459 163.788 94.43C182.936 83.6782 203.387 76.5918 225.008 72.782C234.448 71.116 243.977 70.2496 253.55 69.8831C257.306 69.8831 261.073 69.8831 264.829 69.8831C273.745 70.2385 282.617 71.016 291.421 72.4821C306.467 74.9813 321.045 79.0909 335.11 85C358.748 94.9298 379.489 109.058 397.154 127.596C411.731 142.891 423.345 160.207 432.06 179.433C439.327 195.45 444.23 212.166 446.927 229.527C448.031 236.635 448.822 243.8 448.934 251.008C448.934 256.184 448.934 261.371 448.934 266.547C448.9 271.612 448.399 276.632 447.786 281.642C446.303 293.682 443.74 305.5 439.973 317.04C435.771 329.891 430.277 342.154 423.311 353.761C419.901 359.448 414.083 362.113 407.508 361.036C401.69 360.081 396.741 355.216 395.504 349.096C394.78 345.53 395.348 342.109 397.187 338.955C402.147 330.436 406.348 321.572 409.658 312.298C416.022 294.459 419.165 276.066 418.998 257.128C418.764 230.327 412.389 205.047 399.282 181.655C379.901 147.056 351.537 122.653 314.235 108.747C298.286 102.805 281.769 99.6059 264.74 99.1283C225.019 98.0176 189.478 109.636 158.55 134.505C132.972 155.075 115.408 181.233 105.879 212.633C100.774 229.427 98.6681 246.643 99.3702 264.192C100.362 289.184 106.748 312.709 118.662 334.723C119.91 337.022 121.37 339.199 121.939 341.821C123.455 348.84 119.71 356.116 113.134 358.848C106.247 361.702 98.5009 359.403 94.6224 353.117C89.4511 344.731 85.3052 335.834 81.7165 326.659C76.1886 312.52 72.5999 297.892 70.6161 282.875C69.7356 276.366 69.3232 269.835 69.0669 263.282Z" fill="#3173B8"/>
<path d="M306.557 222.101C306.557 228.71 306.545 235.307 306.568 241.916C306.568 242.894 306.479 243.327 305.264 243.371C292.648 243.916 281.792 253.968 280.366 266.374C280.21 267.718 280.232 269.084 280.221 270.44C280.132 282.191 280.388 293.942 280.054 305.694C279.942 309.781 279.407 313.802 278.037 317.678C275.908 323.71 271.695 327.397 265.42 328.686C260.561 329.685 255.702 329.574 250.876 328.408C243.643 326.664 239.519 321.899 237.725 314.857C236.655 310.648 236.421 306.349 236.399 302.051C236.332 291.232 236.287 280.414 236.388 269.595C236.499 257.266 227.683 246.626 216.148 244.004C214.588 243.649 213.005 243.349 211.423 243.36C210.13 243.36 210.03 242.871 210.041 241.816C210.074 230.198 210.063 218.591 210.063 206.973C210.063 205.707 210.063 204.441 210.063 203.174C210.063 200.853 210.063 200.797 212.459 200.897C229.5 201.63 244.434 207.562 257.14 218.935C257.998 219.702 258.388 219.702 259.246 218.947C270.034 209.339 282.617 203.541 296.927 201.508C299.714 201.108 302.522 200.92 305.342 200.864C306.378 200.842 306.568 201.186 306.568 202.13C306.534 208.806 306.557 215.448 306.557 222.101Z" fill="#E52D22"/>
<path d="M379.856 293.923C379.856 302.165 379.856 310.406 379.856 318.648C379.856 319.914 379.778 321.169 379.611 322.424C378.976 326.922 375.755 329.333 371.241 328.644C366.148 327.867 361.901 325.312 357.989 322.202C347.223 313.649 340.013 302.787 336.892 289.347C336.257 286.614 335.911 283.827 335.889 281.016C335.867 276.896 335.889 272.775 335.878 268.654C335.822 257.025 326.516 245.973 315.025 243.907C313.599 243.652 312.15 243.43 310.712 243.374C309.798 243.341 309.509 243.108 309.531 242.186C309.598 239.942 309.553 237.687 309.553 235.444C309.553 224.436 309.576 213.44 309.52 202.433C309.509 201.2 309.821 200.856 311.069 200.9C331.843 201.667 349.163 209.753 362.871 225.314C371.085 234.622 376.245 245.507 378.641 257.658C379.421 261.645 379.845 265.7 379.845 269.776C379.856 277.818 379.845 285.87 379.856 293.923Z" fill="#4BAB37"/>
<path d="M136.784 293.336C136.784 285.472 136.761 277.608 136.784 269.744C136.839 255.738 140.952 242.954 148.909 231.491C159.909 215.652 175.011 205.889 193.969 202.113C197.88 201.335 201.848 201.002 205.838 200.902C206.752 200.88 207.031 201.124 207.031 202.057C206.997 215.441 207.008 228.837 207.031 242.221C207.031 243.043 206.863 243.32 205.961 243.354C193.389 243.798 182.991 252.995 181.029 265.357C180.416 269.222 180.728 273.11 180.739 276.986C180.751 282.906 180.271 288.749 178.232 294.358C173.54 307.253 165.281 317.205 153.267 323.981C150.559 325.503 147.661 326.547 144.529 326.924C139.86 327.491 136.828 325.014 136.795 320.304C136.75 311.319 136.784 302.322 136.784 293.336Z" fill="#F6AC28"/>
<path d="M358.089 206.903C346.064 206.926 336.111 197.085 336.267 185.167C336.446 172.082 347.513 163.763 357.967 163.73C369.156 163.685 379.789 172.782 379.833 185.122C379.9 197.162 370.171 206.87 358.089 206.903Z" fill="#4AAC37"/>
<path d="M158.574 206.877C146.515 206.8 136.674 197.003 136.863 185.041C137.064 172.245 147.975 163.571 158.952 163.715C169.574 163.848 180.418 172.445 180.451 185.352C180.485 197.236 170.521 206.955 158.574 206.877Z" fill="#F6AD27"/>
<path d="M257.975 206.9C245.905 206.811 236.242 197.148 236.387 185.13C236.543 172.301 247.231 163.56 258.331 163.715C269.432 163.871 280.075 173.234 279.786 185.963C279.529 197.314 269.588 206.989 257.975 206.9Z" fill="#E52D23"/>
</svg>
